<svg width="192" height="154" viewBox="0 0 192 154" fill="none" xmlns="http://www.w3.org/2000/svg">
<g clip-path="url(#clip0_23_41)">
<path d="M153.1 40.471C153.1 40.3652 153.1 40.3652 153 40.2593C153 40.1534 153 40.1534 152.9 40.0475C150.3 30.5181 136.4 22.5769 125.4 32.0004C113.3 42.3769 115.1 54.7652 109.7 66.0946C106.9 71.8122 105.8 75.2004 101.2 77.1063C98.6 78.1652 95.8 78.0593 93.2 77.0005C88 74.671 86.5 72.2357 83.6 66.0946C78.3 54.7652 80.1 42.3769 68.1 32.0004C57.1 22.5769 43.2 30.5181 40.6 40.0475C40.6 40.1534 40.6 40.1534 40.5 40.2593C40.4 40.3652 40.5 40.3652 40.4 40.471C35.6 59.8475 52.1 83.7769 77.4 94.0475C83.7 96.5887 90.4 97.7534 96.7 97.5416C103.1 97.6475 109.7 96.5887 116 94.0475C141.5 83.7769 158 59.8475 153.1 40.471Z" fill="url(#paint0_linear_23_41)"/>
<path d="M150 64.1887C138.6 81.2358 107.2 99.2358 78.9 86.6357C50.6 74.1416 32.5 46.7181 38.3 25.4358C38.3 25.3299 38.3 25.224 38.4 25.224C38.4 25.1181 38.4 25.0122 38.5 25.0122C41.6 14.5299 55.7 5.52987 69.6 14.2122C85.9 24.3769 87.2 35.7063 88.1 49.7887C89.1 64.824 95.8 72.5534 109.9 78.8005C124 85.0475 145.3 71.1769 150 64.1887Z" fill="url(#paint1_linear_23_41)"/>
<path d="M153.4 59.7416C143.5 80.1769 108.2 95.3181 82.4 79.8593C56.6 64.4005 42.6 34.3299 51.3 12.4122C51.3 12.3063 51.4 12.2005 51.4 12.2005C51.4 12.0946 51.5 11.9887 51.5 11.9887C56 1.1887 79.1 -5.69365 88.9 7.43576C99.2 21.0946 94.3 31.8946 96.7 46.4005C99.9 65.7769 100.7 69.0593 116.3 70.3299C131.3 71.4946 151.1 64.5063 153.4 59.7416Z" fill="url(#paint2_linear_23_41)"/>
<path d="M7.19999 113.53C6.09999 113.53 5.09999 113.53 4.19999 113.636C3.29999 113.742 2.59999 113.848 1.89999 113.954C1.19999 114.06 0.499994 114.271 -0.100006 114.483L0.299994 112.048C0.399994 112.048 0.599994 112.048 0.799994 112.048C0.999994 112.048 1.29999 112.048 1.49999 112.048C1.79999 112.048 2.09999 112.048 2.39999 112.048C2.69999 112.048 2.99999 112.048 3.29999 112.048C3.59999 112.048 3.79999 112.048 3.99999 112.048C4.19999 112.048 4.39999 112.048 4.49999 112.048H12.4C12.5 112.048 12.6 112.048 12.9 112.048C13.1 112.048 13.3 112.048 13.6 112.048C13.9 112.048 14.2 112.048 14.5 112.048C14.8 112.048 15.1 112.048 15.4 112.048C15.7 112.048 15.9 112.048 16.1 112.048C16.3 112.048 16.5 112.048 16.6 112.048L17 114.483C16.4 114.271 15.7 114.166 15 113.954C14.4 113.848 13.6 113.742 12.7 113.636C11.8 113.53 10.8 113.53 9.69999 113.53V127.613C9.69999 128.46 9.69999 129.201 9.69999 129.836C9.69999 130.471 9.79999 131.001 9.79999 131.424C9.79999 131.848 9.89999 132.271 9.89999 132.589C9.99999 132.907 9.99999 133.118 10.1 133.33V133.436H6.79999V133.33C6.89999 133.118 6.89999 132.907 6.99999 132.589C6.99999 132.271 7.09999 131.954 7.09999 131.424C7.09999 131.001 7.19999 130.471 7.19999 129.836C7.19999 129.201 7.19999 128.46 7.19999 127.613V113.53Z" fill="#3B67A6"/>
<path d="M29.3 123.377C29.3 122.107 29.1 121.154 28.6 120.518C28.1 119.883 27.4 119.565 26.6 119.565C26.3 119.565 26 119.671 25.6 119.777C25.2 119.883 24.8 120.095 24.4 120.307C24 120.518 23.6 120.836 23.2 121.048C22.8 121.365 22.4 121.683 22.1 122.001V127.507C22.1 128.354 22.1 129.095 22.1 129.73C22.1 130.365 22.1 130.895 22.2 131.318C22.2 131.742 22.3 132.165 22.3 132.483C22.3 132.801 22.4 133.012 22.5 133.224V133.33H19.3V133.224C19.4 133.012 19.4 132.801 19.5 132.483C19.6 132.165 19.6 131.848 19.6 131.318C19.6 130.895 19.7 130.365 19.7 129.73C19.7 129.095 19.7 128.354 19.7 127.507V117.024C19.7 116.177 19.7 115.436 19.7 114.801C19.7 114.165 19.6 113.636 19.6 113.212C19.6 112.789 19.5 112.365 19.5 112.048C19.4 111.73 19.4 111.518 19.3 111.307V111.201H22.5V111.307C22.4 111.518 22.4 111.73 22.3 112.048C22.3 112.365 22.2 112.683 22.2 113.212C22.2 113.636 22.1 114.165 22.1 114.801C22.1 115.436 22.1 116.177 22.1 117.024V120.836C22.5 120.518 22.9 120.095 23.3 119.777C23.7 119.46 24.2 119.142 24.7 118.824C25.2 118.507 25.7 118.295 26.2 118.189C26.7 117.977 27.2 117.977 27.7 117.977C28.4 117.977 29 118.083 29.5 118.401C30 118.718 30.4 119.036 30.7 119.46C31 119.883 31.3 120.412 31.4 120.942C31.5 121.471 31.6 122.107 31.6 122.636V127.612C31.6 128.46 31.6 129.201 31.6 129.836C31.6 130.471 31.6 131.001 31.7 131.424C31.7 131.848 31.8 132.271 31.8 132.589C31.8 132.907 31.9 133.118 32 133.33V133.436H28.8V133.33C28.9 133.118 28.9 132.907 29 132.589C29.1 132.271 29.1 131.954 29.1 131.424C29.1 131.001 29.2 130.471 29.2 129.836C29.2 129.201 29.2 128.46 29.2 127.612V123.377H29.3Z" fill="#3B67A6"/>
<path d="M42.7 133.648C41.7 133.648 40.7 133.436 39.8 133.118C38.9 132.801 38.1 132.271 37.4 131.636C36.7 131.001 36.2 130.154 35.8 129.201C35.4 128.248 35.2 127.083 35.2 125.812C35.2 124.754 35.4 123.695 35.7 122.742C36.1 121.789 36.5 120.942 37.2 120.307C37.8 119.565 38.5 119.036 39.4 118.718C40.2 118.295 41.1 118.083 42.1 118.083C43.1 118.083 43.9 118.295 44.8 118.612C45.6 118.93 46.3 119.459 46.9 120.095C47.5 120.73 48 121.577 48.3 122.53C48.6 123.483 48.8 124.648 48.9 125.918C47.9 125.918 46.8 125.918 45.8 125.918C44.8 125.918 43.7 125.918 42.5 125.918C41.7 125.918 40.9 125.918 40.1 125.918C39.3 125.918 38.6 125.918 38 125.918C38.1 126.977 38.2 127.824 38.5 128.671C38.7 129.518 39.1 130.154 39.5 130.789C39.9 131.424 40.5 131.848 41.1 132.165C41.7 132.483 42.4 132.589 43.2 132.589C43.7 132.589 44.2 132.483 44.7 132.377C45.2 132.271 45.6 132.059 46 131.848C46.4 131.636 46.7 131.318 47 131.001C47.3 130.683 47.6 130.365 47.8 129.942L48 130.048L47 132.695C46.5 133.012 45.9 133.224 45.2 133.436C44.5 133.542 43.7 133.648 42.7 133.648ZM40.9 124.648C41.8 124.648 42.8 124.648 43.7 124.648C44.6 124.648 45.5 124.648 46.2 124.648C46.1 123.801 46 123.059 45.7 122.318C45.5 121.683 45.2 121.048 44.8 120.624C44.4 120.201 44 119.777 43.5 119.565C43 119.354 42.5 119.142 41.9 119.142C41.4 119.142 40.9 119.248 40.4 119.565C40 119.777 39.6 120.201 39.2 120.624C38.8 121.048 38.6 121.683 38.4 122.318C38.2 122.954 38.1 123.801 38 124.648C38.4 124.648 38.9 124.648 39.3 124.648C39.9 124.648 40.4 124.648 40.9 124.648Z" fill="#3B67A6"/>
<path d="M74.5 115.013L80.1 129.307L85.5 115.224C85.7 114.695 85.9 114.165 86 113.742C86.1 113.318 86.2 113.001 86.2 112.683C86.2 112.577 86.2 112.471 86.2 112.366C86.2 112.26 86.2 112.154 86.2 112.154V112.048H89V112.154C88.8 112.365 88.6 112.683 88.4 113.213C88.2 113.636 87.9 114.271 87.6 115.013L80 133.754H78.9L73.5 119.883L68.6 133.754H67.6L60.8 115.754C60.6 115.33 60.5 114.907 60.3 114.483C60.1 114.06 60 113.742 59.8 113.424C59.6 113.107 59.5 112.895 59.4 112.577C59.3 112.365 59.2 112.26 59.1 112.154V112.048H63V112.154C63 112.26 63 112.366 63 112.366C63 112.471 63 112.471 63 112.577C63 112.895 63 113.213 63.1 113.636C63.2 114.06 63.3 114.483 63.5 115.013L68.7 128.989L73.7 114.907L74.5 115.013Z" fill="#3B67A6"/>
<path d="M88.6 128.989C88.6 128.248 88.8 127.506 89.1 126.977C89.4 126.448 89.8 125.918 90.3 125.495C90.8 125.071 91.4 124.753 92 124.542C92.6 124.33 93.3 124.118 94 123.906C94.7 123.801 95.4 123.695 96 123.589C96.7 123.483 97.3 123.483 97.8 123.483V122.742C97.8 122.106 97.7 121.577 97.6 121.048C97.4 120.624 97.2 120.201 96.9 119.883C96.6 119.565 96.3 119.353 95.9 119.142C95.5 119.036 95.1 118.93 94.6 118.93C94.3 118.93 93.9 118.93 93.6 119.036C93.3 119.142 92.9 119.142 92.6 119.353C92.3 119.459 91.9 119.671 91.5 119.883C91.1 120.095 90.7 120.412 90.3 120.73L90.2 120.624L91.1 118.506C91.4 118.401 91.7 118.189 92 118.189C92.3 118.083 92.6 117.977 92.9 117.977C93.2 117.871 93.5 117.871 93.8 117.871C94.1 117.871 94.5 117.871 94.8 117.871C95.8 117.871 96.6 117.977 97.3 118.295C98 118.506 98.6 118.93 99 119.353C99.4 119.777 99.8 120.306 100 120.836C100.2 121.471 100.3 122.001 100.3 122.742V127.506C100.3 128.353 100.3 129.095 100.3 129.73C100.3 130.365 100.4 130.895 100.4 131.318C100.4 131.742 100.5 132.165 100.5 132.483C100.6 132.801 100.6 133.012 100.7 133.224V133.33H97.6V133.224C97.6 133.118 97.7 132.906 97.7 132.695C97.7 132.483 97.7 132.271 97.8 131.953C97.6 132.165 97.4 132.271 97.1 132.483C96.8 132.695 96.5 132.801 96.2 133.012C95.9 133.118 95.5 133.33 95.1 133.33C94.7 133.436 94.2 133.436 93.7 133.436C92.1 133.436 90.8 133.012 90 132.271C89 131.636 88.6 130.471 88.6 128.989ZM97.8 124.753C97 124.753 96.1 124.859 95.4 124.859C94.6 124.965 93.9 125.177 93.3 125.389C92.7 125.706 92.2 126.13 91.9 126.659C91.5 127.189 91.4 127.93 91.4 128.883C91.4 130.048 91.7 130.895 92.2 131.53C92.7 132.165 93.5 132.483 94.5 132.483C94.9 132.483 95.4 132.377 95.7 132.271C96 132.165 96.4 131.953 96.7 131.742C97 131.53 97.2 131.318 97.4 131.106C97.6 130.895 97.7 130.683 97.8 130.365C97.8 129.942 97.8 129.624 97.8 129.095C97.8 128.671 97.8 128.142 97.8 127.506V124.753Z" fill="#3B67A6"/>
<path d="M106.3 118.295C106.3 118.401 106.3 118.507 106.3 118.613C106.3 118.718 106.3 118.824 106.3 118.93C106.3 119.248 106.3 119.566 106.4 119.989C106.5 120.307 106.6 120.836 106.8 121.366L110.1 129.73L113.5 121.471C113.6 121.154 113.8 120.73 113.9 120.307C114.1 119.883 114.1 119.46 114.1 119.036C114.1 118.93 114.1 118.824 114.1 118.718C114.1 118.613 114.1 118.613 114 118.507V118.401H116.5V118.507C116.3 118.718 116.1 119.036 115.9 119.46C115.6 119.883 115.4 120.518 115.1 121.26L110 133.754H109.2L104.4 122.001C104.2 121.577 104.1 121.154 103.9 120.73C103.7 120.307 103.5 119.989 103.4 119.671C103.2 119.354 103.1 119.142 102.9 118.93C102.8 118.718 102.7 118.613 102.6 118.507V118.401H106.3V118.295Z" fill="#3B67A6"/>
<path d="M125.4 133.648C124.4 133.648 123.4 133.436 122.5 133.118C121.6 132.801 120.8 132.271 120.1 131.636C119.4 131.001 118.9 130.154 118.5 129.201C118.1 128.248 117.9 127.083 117.9 125.812C117.9 124.754 118.1 123.695 118.4 122.742C118.8 121.789 119.2 120.942 119.9 120.307C120.5 119.565 121.2 119.036 122.1 118.718C122.9 118.295 123.8 118.083 124.8 118.083C125.8 118.083 126.6 118.295 127.5 118.612C128.3 118.93 129 119.459 129.6 120.095C130.2 120.73 130.7 121.577 131 122.53C131.3 123.483 131.5 124.648 131.6 125.918C130.6 125.918 129.5 125.918 128.5 125.918C127.5 125.918 126.4 125.918 125.2 125.918C124.4 125.918 123.6 125.918 122.8 125.918C122 125.918 121.3 125.918 120.7 125.918C120.8 126.977 120.9 127.824 121.2 128.671C121.4 129.518 121.8 130.154 122.2 130.789C122.6 131.424 123.2 131.848 123.8 132.165C124.4 132.483 125.1 132.589 125.9 132.589C126.4 132.589 126.9 132.483 127.4 132.377C127.9 132.271 128.3 132.059 128.7 131.848C129.1 131.636 129.4 131.318 129.7 131.001C130 130.683 130.3 130.365 130.5 129.942L130.7 130.048L129.7 132.695C129.2 133.012 128.6 133.224 127.9 133.436C127.2 133.542 126.3 133.648 125.4 133.648ZM123.5 124.648C124.4 124.648 125.4 124.648 126.3 124.648C127.2 124.648 128.1 124.648 128.8 124.648C128.7 123.801 128.6 123.059 128.3 122.318C128.1 121.683 127.8 121.048 127.4 120.624C127 120.201 126.6 119.777 126.1 119.565C125.6 119.354 125.1 119.142 124.5 119.142C124 119.142 123.5 119.248 123 119.565C122.6 119.777 122.2 120.201 121.8 120.624C121.5 121.048 121.2 121.683 121 122.318C120.8 122.954 120.7 123.801 120.6 124.648C121 124.648 121.5 124.648 121.9 124.648C122.5 124.648 123 124.648 123.5 124.648Z" fill="#3B67A6"/>
<path d="M157.9 123.271C157.5 123.271 157.1 123.271 156.5 123.271C155.9 123.271 155.3 123.271 154.7 123.271C154 123.271 153.4 123.271 152.7 123.271C152 123.271 151.3 123.271 150.6 123.271C149.9 123.271 149.3 123.271 148.7 123.271C148.1 123.271 147.6 123.271 147.1 123.271V127.613C147.1 128.46 147.1 129.201 147.1 129.836C147.1 130.471 147.2 131.001 147.2 131.424C147.2 131.848 147.3 132.271 147.3 132.589C147.4 132.907 147.4 133.119 147.5 133.33V133.436H144.2V133.33C144.3 133.119 144.3 132.907 144.4 132.589C144.5 132.271 144.5 131.954 144.5 131.424C144.5 131.001 144.6 130.471 144.6 129.836C144.6 129.201 144.6 128.46 144.6 127.613V117.977C144.6 117.13 144.6 116.389 144.6 115.754C144.6 115.119 144.6 114.589 144.5 114.166C144.5 113.742 144.4 113.319 144.4 113.001C144.3 112.683 144.3 112.471 144.2 112.26V112.154H147.5V112.26C147.4 112.471 147.4 112.683 147.3 113.001C147.2 113.319 147.2 113.636 147.2 114.166C147.2 114.589 147.1 115.119 147.1 115.754C147.1 116.389 147.1 117.13 147.1 117.977V121.789C147.6 121.789 148.1 121.789 148.7 121.789C149.3 121.789 150 121.789 150.6 121.789C151.3 121.789 151.9 121.789 152.6 121.789C153.3 121.789 154 121.789 154.6 121.789C155.2 121.789 155.8 121.789 156.4 121.789C157 121.789 157.4 121.789 157.9 121.683V118.083C157.9 117.236 157.9 116.495 157.9 115.86C157.9 115.224 157.8 114.695 157.8 114.271C157.8 113.848 157.7 113.424 157.7 113.107C157.6 112.789 157.6 112.577 157.5 112.366V112.26H160.8V112.366C160.7 112.577 160.7 112.789 160.6 113.107C160.5 113.424 160.5 113.742 160.5 114.271C160.5 114.695 160.4 115.224 160.4 115.86C160.4 116.495 160.4 117.236 160.4 118.083V127.719C160.4 128.566 160.4 129.307 160.4 129.942C160.4 130.577 160.4 131.107 160.5 131.53C160.5 131.954 160.6 132.377 160.6 132.695C160.7 133.013 160.7 133.224 160.8 133.436V133.542H157.5V133.436C157.6 133.224 157.6 133.013 157.7 132.695C157.8 132.377 157.8 132.06 157.8 131.53C157.8 131.107 157.9 130.577 157.9 129.942C157.9 129.307 157.9 128.566 157.9 127.719V123.271Z" fill="#3B67A6"/>
<path d="M164.4 128.989C164.4 128.248 164.6 127.506 164.9 126.977C165.2 126.448 165.6 125.918 166.1 125.495C166.6 125.071 167.2 124.753 167.8 124.542C168.4 124.33 169.1 124.118 169.8 123.906C170.5 123.801 171.2 123.695 171.8 123.589C172.5 123.483 173.1 123.483 173.6 123.483V122.742C173.6 122.106 173.5 121.577 173.4 121.048C173.2 120.624 173 120.201 172.7 119.883C172.4 119.565 172.1 119.353 171.7 119.142C171.3 119.036 170.9 118.93 170.4 118.93C170.1 118.93 169.7 118.93 169.4 119.036C169.1 119.142 168.7 119.142 168.4 119.353C168.1 119.459 167.7 119.671 167.3 119.883C166.9 120.095 166.5 120.412 166.1 120.73L166 120.624L166.9 118.506C167.2 118.401 167.5 118.189 167.8 118.189C168.1 118.083 168.4 117.977 168.7 117.977C169 117.871 169.3 117.871 169.6 117.871C169.9 117.871 170.3 117.871 170.6 117.871C171.6 117.871 172.4 117.977 173.1 118.295C173.8 118.506 174.4 118.93 174.8 119.353C175.2 119.777 175.6 120.306 175.8 120.836C176 121.471 176.1 122.001 176.1 122.742V127.506C176.1 128.353 176.1 129.095 176.1 129.73C176.1 130.365 176.2 130.895 176.2 131.318C176.2 131.742 176.3 132.165 176.3 132.483C176.4 132.801 176.4 133.012 176.5 133.224V133.33H173.4V133.224C173.4 133.118 173.5 132.906 173.5 132.695C173.5 132.483 173.5 132.271 173.6 131.953C173.4 132.165 173.2 132.271 172.9 132.483C172.6 132.695 172.3 132.801 172 133.012C171.7 133.118 171.3 133.33 170.9 133.33C170.5 133.436 170 133.436 169.5 133.436C167.9 133.436 166.6 133.012 165.8 132.271C164.9 131.636 164.4 130.471 164.4 128.989ZM173.7 124.753C172.9 124.753 172 124.859 171.3 124.859C170.5 124.965 169.8 125.177 169.2 125.389C168.6 125.706 168.1 126.13 167.8 126.659C167.4 127.189 167.3 127.93 167.3 128.883C167.3 130.048 167.6 130.895 168.1 131.53C168.6 132.165 169.4 132.483 170.4 132.483C170.8 132.483 171.3 132.377 171.6 132.271C172 132.165 172.3 131.953 172.6 131.742C172.9 131.53 173.1 131.318 173.3 131.106C173.5 130.895 173.6 130.683 173.7 130.365C173.7 129.942 173.7 129.624 173.7 129.095C173.7 128.671 173.7 128.142 173.7 127.506V124.753Z" fill="#3B67A6"/>
<path d="M180.9 117.024C180.9 116.177 180.9 115.436 180.9 114.801C180.9 114.165 180.8 113.636 180.8 113.212C180.8 112.789 180.7 112.365 180.7 112.048C180.6 111.73 180.6 111.518 180.5 111.307V111.201H183.7V111.307C183.6 111.518 183.6 111.73 183.5 112.048C183.5 112.365 183.4 112.683 183.4 113.212C183.4 113.636 183.3 114.165 183.3 114.801C183.3 115.436 183.3 116.177 183.3 117.024V127.507C183.3 128.354 183.3 129.095 183.3 129.73C183.3 130.365 183.3 130.895 183.4 131.318C183.4 131.742 183.5 132.165 183.5 132.483C183.5 132.801 183.6 133.012 183.7 133.224V133.33H180.5V133.224C180.6 133.012 180.6 132.801 180.7 132.483C180.8 132.165 180.8 131.848 180.8 131.318C180.8 130.895 180.9 130.365 180.9 129.73C180.9 129.095 180.9 128.354 180.9 127.507V117.024Z" fill="#3B67A6"/>
<path d="M188.4 117.024C188.4 116.177 188.4 115.436 188.4 114.801C188.4 114.165 188.3 113.636 188.3 113.212C188.3 112.789 188.2 112.365 188.2 112.048C188.1 111.73 188.1 111.518 188 111.307V111.201H191.2V111.307C191.1 111.518 191.1 111.73 191 112.048C191 112.365 190.9 112.683 190.9 113.212C190.9 113.636 190.8 114.165 190.8 114.801C190.8 115.436 190.8 116.177 190.8 117.024V127.507C190.8 128.354 190.8 129.095 190.8 129.73C190.8 130.365 190.8 130.895 190.9 131.318C190.9 131.742 191 132.165 191 132.483C191 132.801 191.1 133.012 191.2 133.224V133.33H188V133.224C188.1 133.012 188.1 132.801 188.2 132.483C188.3 132.165 188.3 131.848 188.3 131.318C188.3 130.895 188.4 130.365 188.4 129.73C188.4 129.095 188.4 128.354 188.4 127.507V117.024Z" fill="#3B67A6"/>
<path d="M35.7 152.918C35.8 152.813 35.8 152.707 35.9 152.495C36 152.283 36 152.071 36.1 151.86C36.2 151.436 36.2 151.013 36.3 150.589C36.4 150.06 36.4 149.636 36.5 149.107C36.6 148.577 36.7 148.048 36.7 147.518C36.8 146.989 36.9 146.46 36.9 145.824C37 145.295 37 144.765 37.1 144.236C37.2 143.707 37.2 143.283 37.3 142.86C37.4 142.436 37.4 142.118 37.4 141.801C37.4 141.483 37.5 141.271 37.5 141.06H38.5L43.5 150.907L48.4 141.06H49.1L50.4 151.013C50.4 151.33 50.5 151.542 50.5 151.86C50.5 152.071 50.6 152.283 50.6 152.389C50.6 152.601 50.7 152.707 50.7 152.813C50.7 152.918 50.8 153.024 50.8 153.024H48.8C48.8 152.918 48.9 152.813 48.9 152.707C48.9 152.601 48.9 152.389 48.9 152.177C48.9 152.071 48.9 152.071 48.9 151.965C48.9 151.86 48.9 151.86 48.9 151.754L47.9 143.707L43.2 153.024L42.7 152.918L38 143.601C37.8 144.871 37.7 146.142 37.5 147.307C37.4 147.836 37.4 148.26 37.3 148.789C37.2 149.213 37.2 149.742 37.1 150.165C37.1 150.589 37 150.907 37 151.224C37 151.542 37 151.754 37 151.965C37 152.177 37 152.283 37 152.495C37 152.601 37 152.813 37 152.813C37 152.918 37 153.024 37 153.13L35.7 152.918Z" fill="#3B67A6"/>
<path d="M54.7 150.059C54.7 150.801 54.8 151.33 55.1 151.648C55.4 151.965 55.7 152.177 56.2 152.177C56.4 152.177 56.6 152.177 56.8 152.071C57 151.965 57.2 151.859 57.5 151.754C57.7 151.648 57.9 151.436 58.2 151.33C58.4 151.118 58.6 151.012 58.8 150.801C58.8 150.589 58.8 150.483 58.8 150.271C58.8 150.059 58.8 149.848 58.8 149.742V147.73C58.8 147.306 58.8 146.883 58.8 146.459C58.8 146.142 58.8 145.824 58.8 145.506C58.8 145.295 58.8 145.083 58.7 144.871C58.7 144.659 58.6 144.554 58.6 144.448H60.4C60.4 144.554 60.3 144.659 60.3 144.871C60.3 145.083 60.3 145.295 60.2 145.506C60.2 145.718 60.2 146.036 60.2 146.459C60.2 146.777 60.2 147.201 60.2 147.73V149.742C60.2 150.165 60.2 150.589 60.2 151.012C60.2 151.33 60.2 151.648 60.2 151.965C60.2 152.177 60.2 152.389 60.3 152.601C60.3 152.812 60.4 152.918 60.4 153.024H58.6C58.6 152.918 58.7 152.706 58.7 152.495C58.7 152.283 58.8 151.965 58.8 151.648C58.6 151.859 58.4 152.071 58.1 152.177C57.9 152.389 57.6 152.495 57.3 152.706C57 152.812 56.8 153.024 56.5 153.024C56.2 153.13 56 153.13 55.7 153.13C55.3 153.13 54.9 153.024 54.7 152.918C54.4 152.812 54.2 152.601 54 152.283C53.8 152.071 53.7 151.754 53.6 151.436C53.5 151.118 53.5 150.801 53.5 150.483V147.624C53.5 147.201 53.5 146.777 53.5 146.354C53.5 146.036 53.5 145.718 53.5 145.401C53.5 145.189 53.5 144.977 53.4 144.765C53.4 144.554 53.3 144.448 53.3 144.342H55C55 144.448 54.9 144.554 54.9 144.765C54.9 144.977 54.8 145.189 54.8 145.401C54.8 145.612 54.8 145.93 54.8 146.354C54.8 146.671 54.8 147.095 54.8 147.624V150.059H54.7Z" fill="#3B67A6"/>
<path d="M66.8 146.036H66.7C66.7 145.93 66.6 145.825 66.5 145.613C66.4 145.507 66.3 145.295 66.2 145.189C66.1 145.083 65.9 144.978 65.7 144.872C65.5 144.766 65.3 144.766 65.1 144.766C64.9 144.766 64.8 144.766 64.6 144.872C64.5 144.872 64.3 144.978 64.2 145.083C64.1 145.189 64 145.295 63.9 145.401C63.8 145.507 63.8 145.719 63.8 145.93C63.8 146.248 63.9 146.46 64 146.672C64.2 146.883 64.4 147.201 64.6 147.413C64.8 147.625 65.1 147.942 65.4 148.154C65.7 148.366 65.9 148.683 66.2 148.895C66.4 149.213 66.6 149.425 66.8 149.742C67 150.06 67 150.378 67 150.695C67 151.013 67 151.225 66.9 151.542C66.8 151.86 66.7 152.072 66.5 152.283C66.3 152.495 66.1 152.707 65.7 152.813C65.4 152.919 65 153.025 64.6 153.025C64.3 153.025 64.1 153.025 63.9 152.919C63.7 152.919 63.5 152.813 63.3 152.707C63.1 152.601 63 152.495 62.8 152.495C62.7 152.389 62.5 152.283 62.4 152.283L62.5 150.695H62.6C62.7 150.907 62.7 151.225 62.8 151.436C62.9 151.648 63 151.86 63.2 151.966C63.4 152.072 63.5 152.283 63.7 152.283C63.9 152.389 64.1 152.389 64.4 152.389C64.8 152.389 65.1 152.283 65.3 152.072C65.5 151.86 65.6 151.542 65.6 151.225C65.6 150.907 65.5 150.695 65.4 150.378C65.2 150.166 65 149.848 64.8 149.636C64.6 149.425 64.3 149.213 64 149.001C63.7 148.789 63.5 148.578 63.2 148.26C63 148.048 62.8 147.73 62.6 147.413C62.4 147.095 62.4 146.778 62.4 146.354C62.4 146.036 62.5 145.719 62.6 145.507C62.7 145.189 62.9 144.978 63.1 144.766C63.3 144.554 63.5 144.448 63.8 144.342C64.1 144.236 64.4 144.236 64.7 144.236C65.1 144.236 65.5 144.236 65.8 144.342C66.1 144.448 66.3 144.554 66.5 144.66L66.8 146.036Z" fill="#3B67A6"/>
<path d="M69.6 147.624C69.6 147.201 69.6 146.777 69.6 146.354C69.6 146.036 69.6 145.718 69.6 145.401C69.6 145.189 69.6 144.977 69.5 144.765C69.5 144.554 69.4 144.448 69.4 144.342H71.2C71.2 144.448 71.1 144.554 71.1 144.765C71.1 144.977 71 145.189 71 145.401C71 145.612 71 145.93 71 146.354C71 146.671 71 147.095 71 147.624V149.636C71 150.06 71 150.483 71 150.907C71 151.224 71 151.542 71 151.859C71 152.071 71 152.283 71.1 152.495C71.1 152.707 71.2 152.812 71.2 152.918H69.4C69.4 152.812 69.5 152.707 69.5 152.495C69.5 152.283 69.6 152.071 69.6 151.859C69.6 151.648 69.6 151.33 69.6 150.907C69.6 150.589 69.6 150.165 69.6 149.636V147.624ZM69.4 141.907C69.4 141.801 69.4 141.695 69.5 141.589C69.5 141.483 69.6 141.377 69.7 141.271C69.8 141.165 69.9 141.165 70 141.06C70.1 141.06 70.2 140.954 70.3 140.954C70.4 140.954 70.5 140.954 70.6 141.06C70.7 141.06 70.8 141.165 70.9 141.271C71 141.377 71 141.483 71.1 141.589C71.1 141.695 71.2 141.801 71.2 141.907C71.2 142.118 71.1 142.33 71 142.542C70.8 142.754 70.6 142.754 70.4 142.754C70.3 142.754 70.2 142.754 70.1 142.648C70 142.648 69.9 142.542 69.8 142.436C69.7 142.33 69.7 142.224 69.6 142.118C69.4 142.118 69.4 142.012 69.4 141.907Z" fill="#3B67A6"/>
<path d="M80.6 151.225L80 152.707C79.9 152.813 79.7 152.813 79.5 152.919C79.3 153.025 79.1 153.025 78.9 153.025C78.7 153.025 78.5 153.13 78.3 153.13C78.1 153.13 77.9 153.13 77.7 153.13C77.1 153.13 76.5 153.025 75.9 152.813C75.4 152.601 74.9 152.283 74.5 151.966C74.1 151.542 73.8 151.119 73.6 150.589C73.4 150.06 73.3 149.425 73.3 148.683C73.3 148.048 73.4 147.519 73.6 146.883C73.8 146.354 74.1 145.93 74.6 145.507C75 145.083 75.5 144.766 76 144.554C76.6 144.342 77.2 144.236 77.8 144.236C78.1 144.236 78.4 144.236 78.7 144.342C79 144.342 79.3 144.448 79.6 144.554L80.2 145.93L80.1 146.036C80 145.825 79.8 145.719 79.6 145.613C79.4 145.507 79.2 145.401 79 145.295C78.8 145.189 78.6 145.083 78.3 145.083C78.1 144.978 77.8 144.978 77.6 144.978C77.2 144.978 76.8 145.083 76.5 145.189C76.2 145.295 75.9 145.613 75.6 145.825C75.4 146.142 75.2 146.46 75 146.883C74.9 147.307 74.8 147.73 74.8 148.366C74.8 149.001 74.9 149.53 75 150.06C75.1 150.589 75.3 151.013 75.6 151.436C75.9 151.86 76.2 152.072 76.6 152.283C77 152.495 77.4 152.601 78 152.601C78.2 152.601 78.5 152.601 78.7 152.495C78.9 152.389 79.2 152.389 79.4 152.178C79.6 152.072 79.8 151.966 80 151.754C80.2 151.542 80.4 151.33 80.6 151.225Z" fill="#3B67A6"/>
<path d="M82.2 150.483C82.2 150.06 82.3 149.636 82.5 149.319C82.7 149.001 82.9 148.683 83.2 148.472C83.5 148.26 83.8 148.048 84.2 147.942C84.6 147.836 84.9 147.73 85.3 147.625C85.7 147.519 86.1 147.519 86.5 147.413C86.9 147.413 87.2 147.413 87.5 147.307V146.883C87.5 146.566 87.5 146.248 87.4 145.93C87.3 145.613 87.2 145.401 87 145.295C86.8 145.083 86.6 144.978 86.4 144.872C86.2 144.766 85.9 144.766 85.6 144.766C85.4 144.766 85.2 144.766 85 144.766C84.8 144.766 84.6 144.872 84.4 144.978C84.2 145.083 84 145.189 83.8 145.295C83.6 145.401 83.3 145.613 83.1 145.825H83L83.5 144.66C83.7 144.554 83.8 144.554 84 144.448C84.2 144.448 84.3 144.342 84.5 144.342C84.7 144.342 84.9 144.236 85 144.236C85.2 144.236 85.4 144.236 85.6 144.236C86.2 144.236 86.6 144.342 87 144.448C87.4 144.554 87.7 144.766 88 145.083C88.2 145.295 88.4 145.613 88.5 145.93C88.6 146.248 88.7 146.566 88.7 146.989V149.742C88.7 150.166 88.7 150.589 88.7 151.013C88.7 151.33 88.7 151.648 88.7 151.966C88.7 152.178 88.7 152.389 88.8 152.601C88.8 152.813 88.9 152.919 88.9 153.025H87.2C87.2 152.919 87.2 152.813 87.3 152.707C87.3 152.601 87.3 152.495 87.3 152.283C87.2 152.389 87.1 152.495 86.9 152.601C86.7 152.707 86.6 152.813 86.4 152.919C86.2 153.025 86 153.025 85.8 153.13C85.6 153.236 85.3 153.236 85 153.236C84.1 153.236 83.4 153.025 82.9 152.601C82.4 151.966 82.2 151.33 82.2 150.483ZM87.4 148.048C86.9 148.048 86.5 148.048 86 148.154C85.6 148.26 85.2 148.366 84.8 148.472C84.5 148.683 84.2 148.895 84 149.213C83.8 149.53 83.7 149.954 83.7 150.483C83.7 151.119 83.9 151.648 84.2 151.966C84.5 152.283 84.9 152.495 85.5 152.495C85.8 152.495 86 152.495 86.2 152.389C86.4 152.283 86.6 152.177 86.8 152.072C87 151.966 87.1 151.86 87.2 151.648C87.3 151.542 87.4 151.33 87.5 151.225C87.5 151.013 87.5 150.801 87.5 150.483C87.5 150.272 87.5 149.954 87.5 149.636V148.048H87.4Z" fill="#3B67A6"/>
<path d="M91.8 143.707C91.8 143.283 91.8 142.86 91.8 142.436C91.8 142.118 91.8 141.801 91.8 141.483C91.8 141.271 91.8 141.06 91.7 140.848C91.7 140.636 91.6 140.53 91.6 140.424H93.4C93.4 140.53 93.3 140.636 93.3 140.848C93.3 141.06 93.2 141.271 93.2 141.483C93.2 141.695 93.2 142.013 93.2 142.436C93.2 142.754 93.2 143.177 93.2 143.707V149.636C93.2 150.06 93.2 150.483 93.2 150.907C93.2 151.224 93.2 151.542 93.2 151.86C93.2 152.071 93.2 152.283 93.3 152.495C93.3 152.707 93.4 152.813 93.4 152.918H91.6C91.6 152.813 91.7 152.707 91.7 152.495C91.7 152.283 91.8 152.071 91.8 151.86C91.8 151.648 91.8 151.33 91.8 150.907C91.8 150.589 91.8 150.166 91.8 149.636V143.707Z" fill="#3B67A6"/>
<path d="M104.6 141.695C104 141.695 103.4 141.695 102.9 141.801C102.4 141.907 102 141.907 101.6 142.012C101.2 142.118 100.8 142.224 100.5 142.33L100.7 140.954C100.8 140.954 100.9 140.954 101 140.954C101.1 140.954 101.3 140.954 101.4 140.954C101.6 140.954 101.7 140.954 101.9 140.954C102.1 140.954 102.2 140.954 102.4 140.954C102.6 140.954 102.7 140.954 102.8 140.954C102.9 140.954 103 140.954 103.1 140.954H107.6C107.7 140.954 107.7 140.954 107.9 140.954C108 140.954 108.2 140.954 108.3 140.954C108.5 140.954 108.6 140.954 108.8 140.954C109 140.954 109.1 140.954 109.3 140.954C109.5 140.954 109.6 140.954 109.7 140.954C109.8 140.954 109.9 140.954 110 140.954L110.2 142.33C109.9 142.224 109.5 142.118 109.1 142.012C108.7 141.907 108.3 141.907 107.8 141.801C107.3 141.695 106.7 141.695 106.1 141.695V149.636C106.1 150.06 106.1 150.483 106.1 150.907C106.1 151.224 106.1 151.542 106.1 151.859C106.1 152.071 106.1 152.283 106.2 152.495C106.2 152.707 106.3 152.812 106.3 152.918H104.4C104.4 152.812 104.5 152.707 104.5 152.495C104.5 152.283 104.6 152.071 104.6 151.859C104.6 151.648 104.6 151.33 104.6 150.907C104.6 150.589 104.6 150.165 104.6 149.636V141.695Z" fill="#3B67A6"/>
<path d="M117.4 147.307C117.4 146.565 117.3 146.036 117 145.718C116.7 145.401 116.3 145.189 115.9 145.189C115.7 145.189 115.5 145.189 115.3 145.295C115.1 145.401 114.9 145.507 114.6 145.613C114.4 145.718 114.2 145.93 113.9 146.036C113.7 146.248 113.5 146.354 113.3 146.565V149.636C113.3 150.06 113.3 150.483 113.3 150.907C113.3 151.224 113.3 151.542 113.3 151.86C113.3 152.071 113.3 152.283 113.4 152.495C113.4 152.707 113.5 152.813 113.5 152.918H111.7C111.7 152.813 111.8 152.707 111.8 152.495C111.8 152.283 111.9 152.071 111.9 151.86C111.9 151.648 111.9 151.33 111.9 150.907C111.9 150.589 111.9 150.166 111.9 149.636V143.707C111.9 143.283 111.9 142.86 111.9 142.436C111.9 142.118 111.9 141.801 111.9 141.483C111.9 141.271 111.9 141.06 111.8 140.848C111.8 140.636 111.7 140.53 111.7 140.424H113.5C113.5 140.53 113.4 140.636 113.4 140.848C113.4 141.06 113.3 141.271 113.3 141.483C113.3 141.695 113.3 142.013 113.3 142.436C113.3 142.754 113.3 143.177 113.3 143.707V145.824C113.5 145.613 113.7 145.401 114 145.189C114.3 144.977 114.5 144.871 114.8 144.66C115.1 144.554 115.4 144.342 115.6 144.236C115.9 144.13 116.2 144.13 116.4 144.13C116.8 144.13 117.2 144.236 117.4 144.342C117.7 144.448 117.9 144.66 118.1 144.977C118.3 145.189 118.4 145.507 118.5 145.824C118.6 146.142 118.6 146.46 118.6 146.777V149.636C118.6 150.06 118.6 150.483 118.6 150.907C118.6 151.224 118.6 151.542 118.6 151.86C118.6 152.071 118.6 152.283 118.7 152.495C118.7 152.707 118.8 152.813 118.8 152.918H117C117 152.813 117.1 152.707 117.1 152.495C117.1 152.283 117.2 152.071 117.2 151.86C117.2 151.648 117.2 151.33 117.2 150.907C117.2 150.589 117.2 150.166 117.2 149.636V147.307H117.4Z" fill="#3B67A6"/>
<path d="M125.3 153.13C124.7 153.13 124.2 153.025 123.7 152.813C123.2 152.601 122.7 152.283 122.4 151.966C122 151.542 121.7 151.119 121.5 150.589C121.3 150.06 121.2 149.425 121.2 148.683C121.2 148.048 121.3 147.519 121.5 146.883C121.7 146.354 122 145.93 122.3 145.507C122.7 145.083 123.1 144.766 123.5 144.554C124 144.342 124.5 144.236 125 144.236C125.5 144.236 126 144.342 126.5 144.554C127 144.766 127.4 145.083 127.7 145.401C128 145.825 128.3 146.248 128.5 146.777C128.7 147.307 128.8 147.942 128.8 148.683C128.2 148.683 127.6 148.683 127 148.683C126.4 148.683 125.8 148.683 125.1 148.683C124.6 148.683 124.2 148.683 123.8 148.683C123.4 148.683 123 148.683 122.6 148.683C122.6 149.213 122.7 149.742 122.9 150.272C123 150.695 123.2 151.119 123.5 151.436C123.7 151.754 124 152.072 124.4 152.178C124.7 152.389 125.1 152.495 125.6 152.495C125.9 152.495 126.2 152.495 126.5 152.389C126.8 152.283 127 152.177 127.2 152.072C127.4 151.966 127.6 151.754 127.8 151.648C128 151.436 128.1 151.225 128.2 151.013H128.3L127.7 152.495C127.4 152.601 127.1 152.813 126.7 152.919C126.3 153.025 125.9 153.13 125.3 153.13ZM124.3 148.048C124.8 148.048 125.4 148.048 125.9 148.048C126.4 148.048 126.9 148.048 127.3 148.048C127.3 147.519 127.2 147.095 127 146.777C126.9 146.354 126.7 146.036 126.5 145.825C126.3 145.507 126.1 145.401 125.8 145.189C125.5 145.083 125.2 144.978 124.9 144.978C124.6 144.978 124.3 145.083 124.1 145.189C123.8 145.295 123.6 145.507 123.4 145.825C123.2 146.142 123.1 146.46 122.9 146.777C122.8 147.201 122.7 147.625 122.7 148.048C122.9 148.048 123.2 148.048 123.4 148.048C123.6 148.048 124 148.048 124.3 148.048Z" fill="#3B67A6"/>
<path d="M130.5 150.483C130.5 150.06 130.6 149.636 130.8 149.319C131 149.001 131.2 148.683 131.5 148.472C131.8 148.26 132.1 148.048 132.5 147.942C132.9 147.836 133.2 147.73 133.6 147.625C134 147.519 134.4 147.519 134.8 147.413C135.2 147.413 135.5 147.413 135.8 147.307V146.883C135.8 146.566 135.8 146.248 135.7 145.93C135.6 145.613 135.5 145.401 135.3 145.295C135.1 145.083 134.9 144.978 134.7 144.872C134.5 144.766 134.2 144.766 133.9 144.766C133.7 144.766 133.5 144.766 133.3 144.766C133.1 144.766 132.9 144.872 132.7 144.978C132.5 145.083 132.3 145.189 132.1 145.295C131.9 145.401 131.6 145.613 131.4 145.825H131.3L131.8 144.66C132 144.554 132.1 144.554 132.3 144.448C132.5 144.448 132.6 144.342 132.8 144.342C133 144.342 133.2 144.236 133.3 144.236C133.5 144.236 133.7 144.236 133.9 144.236C134.5 144.236 134.9 144.342 135.3 144.448C135.7 144.554 136 144.766 136.3 145.083C136.5 145.295 136.7 145.613 136.8 145.93C136.9 146.248 137 146.566 137 146.989V149.742C137 150.166 137 150.589 137 151.013C137 151.33 137 151.648 137 151.966C137 152.178 137 152.389 137.1 152.601C137.1 152.813 137.2 152.919 137.2 153.025H135.5C135.5 152.919 135.5 152.813 135.6 152.707C135.6 152.601 135.6 152.495 135.6 152.283C135.5 152.389 135.4 152.495 135.2 152.601C135 152.707 134.9 152.813 134.7 152.919C134.5 153.025 134.3 153.025 134.1 153.13C133.9 153.236 133.6 153.236 133.3 153.236C132.4 153.236 131.7 153.025 131.2 152.601C130.8 151.966 130.5 151.33 130.5 150.483ZM135.7 148.048C135.2 148.048 134.8 148.048 134.3 148.154C133.9 148.26 133.5 148.366 133.1 148.472C132.8 148.683 132.5 148.895 132.3 149.213C132.1 149.53 132 149.954 132 150.483C132 151.119 132.2 151.648 132.5 151.966C132.8 152.283 133.2 152.495 133.8 152.495C134.1 152.495 134.3 152.495 134.5 152.389C134.7 152.283 134.9 152.177 135.1 152.072C135.3 151.966 135.4 151.86 135.5 151.648C135.6 151.542 135.7 151.33 135.8 151.225C135.8 151.013 135.8 150.801 135.8 150.483C135.8 150.272 135.8 149.954 135.8 149.636V148.048H135.7Z" fill="#3B67A6"/>
<path d="M143 152.495C143.2 152.495 143.3 152.495 143.5 152.389C143.7 152.283 143.8 152.283 143.9 152.177C144 152.071 144.2 151.965 144.3 151.859C144.4 151.754 144.6 151.542 144.7 151.436H144.8L144.3 152.812C144.2 152.812 144.2 152.918 144.1 152.918C144 152.918 143.9 153.024 143.8 153.024C143.7 153.024 143.5 153.13 143.3 153.13C143.1 153.13 142.9 153.13 142.7 153.13C142 153.13 141.4 152.918 141.1 152.495C140.7 152.071 140.5 151.436 140.5 150.589V144.977H139.2V144.236C139.4 144.236 139.6 144.236 139.8 144.236C140 144.236 140.3 144.236 140.5 144.236C140.5 143.812 140.5 143.495 140.5 143.177C140.5 142.859 140.5 142.648 140.5 142.436C140.5 142.224 140.5 142.012 140.4 141.906C140.4 141.801 140.3 141.589 140.3 141.483H142.1C142.1 141.589 142 141.695 142 141.906C142 142.012 142 142.224 141.9 142.436C141.9 142.648 141.9 142.965 141.9 143.177C141.9 143.495 141.9 143.812 141.9 144.236C142.2 144.236 142.6 144.236 142.9 144.236C143.2 144.236 143.5 144.236 143.8 144.236C144.1 144.236 144.3 144.236 144.5 144.236C144.7 144.236 144.8 144.236 144.9 144.236L144.8 145.083C144.5 145.083 144.3 145.083 144 145.083C143.7 145.083 143.5 145.083 143.1 145.083C142.8 145.083 142.4 145.083 142.1 145.083V150.801C142.1 151.118 142.1 151.436 142.2 151.648C142.3 151.859 142.4 152.071 142.5 152.177C142.6 152.283 142.7 152.389 142.9 152.389C142.7 152.495 142.8 152.495 143 152.495Z" fill="#3B67A6"/>
<path d="M150.5 153.13C149.9 153.13 149.4 153.025 148.9 152.813C148.4 152.601 147.9 152.283 147.6 151.966C147.2 151.542 146.9 151.119 146.7 150.589C146.5 150.06 146.4 149.425 146.4 148.683C146.4 148.048 146.5 147.519 146.7 146.883C146.9 146.354 147.2 145.93 147.5 145.507C147.9 145.083 148.3 144.766 148.7 144.554C149.2 144.342 149.7 144.236 150.2 144.236C150.7 144.236 151.2 144.342 151.7 144.554C152.2 144.766 152.6 145.083 152.9 145.401C153.2 145.825 153.5 146.248 153.7 146.777C153.9 147.307 154 147.942 154 148.683C153.4 148.683 152.8 148.683 152.2 148.683C151.6 148.683 151 148.683 150.3 148.683C149.8 148.683 149.4 148.683 149 148.683C148.6 148.683 148.2 148.683 147.8 148.683C147.8 149.213 147.9 149.742 148.1 150.272C148.2 150.695 148.4 151.119 148.7 151.436C148.9 151.754 149.2 152.072 149.6 152.178C149.9 152.389 150.3 152.495 150.8 152.495C151.1 152.495 151.4 152.495 151.7 152.389C152 152.283 152.2 152.177 152.4 152.072C152.6 151.966 152.8 151.754 153 151.648C153.2 151.436 153.3 151.225 153.4 151.013H153.5L152.9 152.495C152.6 152.601 152.3 152.813 151.9 152.919C151.5 153.025 151 153.13 150.5 153.13ZM149.4 148.048C149.9 148.048 150.5 148.048 151 148.048C151.5 148.048 152 148.048 152.4 148.048C152.4 147.519 152.3 147.095 152.1 146.777C152 146.354 151.8 146.036 151.6 145.825C151.4 145.507 151.2 145.401 150.9 145.189C150.6 145.083 150.3 144.978 150 144.978C149.7 144.978 149.4 145.083 149.2 145.189C148.9 145.295 148.7 145.507 148.5 145.825C148.3 146.142 148.2 146.46 148 146.777C147.9 147.201 147.8 147.625 147.8 148.048C148 148.048 148.3 148.048 148.5 148.048C148.9 148.048 149.1 148.048 149.4 148.048Z" fill="#3B67A6"/>
<path d="M156.3 147.624C156.3 147.201 156.3 146.777 156.3 146.354C156.3 146.036 156.3 145.719 156.3 145.401C156.3 145.189 156.3 144.977 156.2 144.766C156.2 144.554 156.1 144.448 156.1 144.342H157.9C157.9 144.448 157.8 144.66 157.8 144.766C157.8 144.977 157.7 145.189 157.7 145.507C157.9 145.295 158.1 145.189 158.3 144.977C158.5 144.766 158.7 144.66 158.9 144.554C159.1 144.448 159.3 144.342 159.6 144.236C159.8 144.13 160.1 144.13 160.3 144.13C160.4 144.13 160.6 144.13 160.7 144.13C160.8 144.13 160.9 144.13 161 144.236C161.1 144.236 161.2 144.236 161.2 144.342C161.3 144.342 161.3 144.448 161.4 144.448L161 146.036H160.9C160.8 145.824 160.7 145.613 160.5 145.401C160.3 145.295 160.1 145.189 159.8 145.189C159.6 145.189 159.5 145.189 159.3 145.295C159.1 145.401 158.9 145.401 158.8 145.507C158.6 145.613 158.4 145.719 158.2 145.93C158 146.036 157.8 146.248 157.7 146.354C157.7 146.566 157.7 146.672 157.7 146.883C157.7 147.095 157.7 147.307 157.7 147.519V149.636C157.7 150.06 157.7 150.483 157.7 150.907C157.7 151.224 157.7 151.542 157.7 151.86C157.7 152.072 157.7 152.283 157.8 152.495C157.8 152.707 157.9 152.813 157.9 152.919H156.1C156.1 152.813 156.2 152.707 156.2 152.495C156.2 152.283 156.3 152.072 156.3 151.86C156.3 151.648 156.3 151.33 156.3 150.907C156.3 150.589 156.3 150.166 156.3 149.636V147.624Z" fill="#3B67A6"/>
</g>
<defs>
<linearGradient id="paint0_linear_23_41" x1="127.215" y1="26.7586" x2="75.7237" y2="64.9981" gradientUnits="userSpaceOnUse">
<stop stop-color="#CCE0F4" stop-opacity="0.5"/>
<stop offset="0.1021" stop-color="#C3D7ED" stop-opacity="0.5"/>
<stop offset="0.2718" stop-color="#AAC0DD" stop-opacity="0.5"/>
<stop offset="0.4884" stop-color="#86A0C8" stop-opacity="0.5"/>
<stop offset="0.7434" stop-color="#577BAE" stop-opacity="0.5"/>
<stop offset="1" stop-color="#005C97" stop-opacity="0.5"/>
</linearGradient>
<linearGradient id="paint1_linear_23_41" x1="44.8424" y1="37.8718" x2="143.109" y2="74.9881" gradientUnits="userSpaceOnUse">
<stop stop-color="#CCE0F4" stop-opacity="0.5"/>
<stop offset="0.1021" stop-color="#C3D7ED" stop-opacity="0.5"/>
<stop offset="0.2718" stop-color="#AAC0DD" stop-opacity="0.5"/>
<stop offset="0.4884" stop-color="#86A0C8" stop-opacity="0.5"/>
<stop offset="0.7434" stop-color="#577BAE" stop-opacity="0.5"/>
<stop offset="1" stop-color="#005C97" stop-opacity="0.5"/>
</linearGradient>
<linearGradient id="paint2_linear_23_41" x1="55.7515" y1="25.8635" x2="145.231" y2="70.5276" gradientUnits="userSpaceOnUse">
<stop stop-color="#CCE0F4" stop-opacity="0.5"/>
<stop offset="0.1021" stop-color="#C3D7ED" stop-opacity="0.5"/>
<stop offset="0.2718" stop-color="#AAC0DD" stop-opacity="0.5"/>
<stop offset="0.4884" stop-color="#86A0C8" stop-opacity="0.5"/>
<stop offset="0.7434" stop-color="#577BAE" stop-opacity="0.5"/>
<stop offset="1" stop-color="#005C97" stop-opacity="0.5"/>
</linearGradient>
<clipPath id="clip0_23_41">
<rect width="191.2" height="152.894" fill="white" transform="translate(0 0.23584)"/>
</clipPath>
</defs>
</svg>
