<svg width="342" height="76" viewBox="0 0 342 76" fill="none" xmlns="http://www.w3.org/2000/svg">
<g clip-path="url(#clip0_15_11)">
<path d="M94.5252 31.4082V31.2789V31.1497C92.3566 23.6531 81.1309 17.5782 72.0738 24.9456C62.2514 33.0884 63.6546 42.7823 59.3174 51.5714C57.0213 56.0952 56.1283 58.6803 52.4289 60.102C50.3879 60.8775 47.9642 60.8775 45.9232 59.9728C41.586 58.1633 40.4379 56.2245 38.0142 51.4422C33.5494 42.6531 35.0802 32.9592 25.2577 24.8163C16.3282 17.449 4.97501 23.6531 2.80641 31.0204V31.1497V31.2789C-1.27565 46.5306 12.1186 65.1428 32.784 73.1565C38.0142 75.2245 43.3719 76 48.602 75.8707C53.8321 76 59.1898 75.0952 64.42 73.1565C84.9578 65.1428 98.4797 46.5306 94.5252 31.4082Z" fill="url(#paint0_linear_15_11)"/>
<path d="M91.9739 49.8912C82.6617 63.2041 57.0213 77.2925 34.0597 67.4694C10.9705 57.6463 -3.82694 36.3197 0.892945 19.6463C0.892945 19.517 0.892945 19.517 0.892945 19.3878C0.892945 19.2585 0.892945 19.2585 0.892945 19.1293C3.44423 10.9864 15.0526 4.00682 26.2782 10.7279C39.5449 18.6123 40.693 27.5306 41.4584 38.517C42.2238 50.2789 47.7091 56.2245 59.3174 61.1361C70.7982 66.1769 88.1469 55.3197 91.9739 49.8912Z" fill="url(#paint1_linear_15_11)"/>
<path d="M94.6528 46.4012C86.6162 62.2992 57.7867 74.1903 36.7386 62.1699C15.6904 50.1495 4.46478 26.6257 11.4808 9.43521C11.4808 9.30596 11.4808 9.30596 11.6084 9.17671C11.6084 9.04746 11.6084 9.04746 11.7359 8.91821C15.3077 0.775349 34.1873 -4.65322 42.0963 5.55766C50.5155 16.2856 46.561 24.6869 48.4745 36.0611C51.0258 51.1835 51.7912 53.7685 64.42 54.6733C76.6662 55.5781 92.8669 50.1495 94.6528 46.4012Z" fill="url(#paint2_linear_15_11)"/>
<path d="M107.282 15.1225C105.878 15.1225 104.603 15.1225 103.455 15.2517C102.307 15.381 101.414 15.5102 100.521 15.6395C99.6278 15.7687 98.7348 16.0272 97.9694 16.2857L98.4797 13.3129C98.6072 13.3129 98.8624 13.3129 99.1175 13.3129C99.3726 13.3129 99.7553 13.3129 100.01 13.3129C100.393 13.3129 100.776 13.3129 101.159 13.3129C101.541 13.3129 101.924 13.3129 102.307 13.3129C102.689 13.3129 102.944 13.3129 103.2 13.3129C103.455 13.3129 103.71 13.3129 103.837 13.3129H113.915C114.043 13.3129 114.17 13.3129 114.553 13.3129C114.808 13.3129 115.063 13.3129 115.446 13.3129C115.828 13.3129 116.211 13.3129 116.594 13.3129C116.977 13.3129 117.359 13.3129 117.742 13.3129C118.125 13.3129 118.38 13.3129 118.635 13.3129C118.89 13.3129 119.145 13.3129 119.273 13.3129L119.783 16.2857C119.018 16.0272 118.125 15.898 117.232 15.6395C116.466 15.5102 115.446 15.381 114.298 15.2517C113.15 15.1225 111.874 15.1225 110.471 15.1225V32.3129C110.471 33.3469 110.471 34.2517 110.471 35.0272C110.471 35.8027 110.598 36.449 110.598 36.966C110.598 37.483 110.726 38 110.726 38.3878C110.853 38.7755 110.853 39.034 110.981 39.2925V39.4218H106.771V39.2925C106.899 39.034 106.899 38.7755 107.026 38.3878C107.026 38 107.154 37.6122 107.154 36.966C107.154 36.449 107.282 35.8027 107.282 35.0272C107.282 34.2517 107.282 33.3469 107.282 32.3129V15.1225Z" fill="#3B67A6"/>
<path d="M135.473 27.2721C135.473 25.7211 135.218 24.5578 134.58 23.7823C133.943 23.0068 133.05 22.619 132.029 22.619C131.646 22.619 131.264 22.7483 130.753 22.8775C130.243 23.0068 129.733 23.2653 129.223 23.5238C128.712 23.7823 128.202 24.17 127.692 24.4285C127.182 24.8163 126.671 25.2041 126.289 25.5918V32.3129C126.289 33.3469 126.289 34.2517 126.289 35.0272C126.289 35.8027 126.289 36.449 126.416 36.966C126.416 37.483 126.544 38 126.544 38.3877C126.544 38.7755 126.671 39.034 126.799 39.2925V39.4217H122.717V39.2925C122.844 39.034 122.844 38.7755 122.972 38.3877C123.1 38 123.1 37.6122 123.1 36.966C123.1 36.449 123.227 35.8027 123.227 35.0272C123.227 34.2517 123.227 33.3469 123.227 32.3129V19.517C123.227 18.483 123.227 17.5782 123.227 16.8027C123.227 16.0272 123.1 15.3809 123.1 14.8639C123.1 14.3469 122.972 13.8299 122.972 13.4422C122.844 13.0544 122.844 12.7959 122.717 12.5374V12.4081H126.799V12.5374C126.671 12.7959 126.671 13.0544 126.544 13.4422C126.544 13.8299 126.416 14.2177 126.416 14.8639C126.416 15.3809 126.289 16.0272 126.289 16.8027C126.289 17.5782 126.289 18.483 126.289 19.517V24.17C126.799 23.7823 127.309 23.2653 127.819 22.8775C128.457 22.4898 128.968 22.102 129.605 21.7143C130.243 21.3265 130.881 21.068 131.519 20.9388C132.157 20.6803 132.795 20.6803 133.432 20.6803C134.325 20.6803 135.091 20.8095 135.728 21.1973C136.366 21.585 136.877 21.9728 137.259 22.4898C137.642 23.0068 138.025 23.653 138.152 24.2993C138.28 24.9456 138.407 25.7211 138.407 26.3673V32.3129C138.407 33.3469 138.407 34.2517 138.407 35.0272C138.407 35.8027 138.407 36.449 138.535 36.966C138.535 37.483 138.662 38 138.662 38.3877C138.662 38.7755 138.79 39.034 138.918 39.2925V39.4217H134.836V39.2925C134.963 39.034 134.963 38.7755 135.091 38.3877C135.218 38 135.218 37.6122 135.218 36.966C135.218 36.449 135.346 35.8027 135.346 35.0272C135.346 34.2517 135.346 33.3469 135.346 32.3129V27.2721H135.473Z" fill="#3B67A6"/>
<path d="M152.567 39.6802C151.291 39.6802 150.016 39.4217 148.868 39.034C147.72 38.6462 146.699 38 145.806 37.2245C144.913 36.4489 144.275 35.4149 143.765 34.2517C143.255 33.0884 143 31.6666 143 30.1156C143 28.8231 143.255 27.5306 143.637 26.3673C144.148 25.204 144.658 24.17 145.551 23.3945C146.316 22.4898 147.209 21.8435 148.357 21.4557C149.378 20.9387 150.526 20.6802 151.802 20.6802C153.077 20.6802 154.098 20.9387 155.246 21.3265C156.266 21.7143 157.159 22.3605 157.925 23.136C158.69 23.9115 159.328 24.9455 159.711 26.1088C160.093 27.2721 160.348 28.6938 160.476 30.2449C159.2 30.2449 157.797 30.2449 156.521 30.2449C155.246 30.2449 153.843 30.2449 152.312 30.2449C151.291 30.2449 150.271 30.2449 149.25 30.2449C148.23 30.2449 147.337 30.2449 146.571 30.2449C146.699 31.5374 146.827 32.5714 147.209 33.6054C147.464 34.6394 147.975 35.4149 148.485 36.1904C148.995 36.966 149.761 37.483 150.526 37.8707C151.291 38.2585 152.184 38.3877 153.205 38.3877C153.843 38.3877 154.48 38.2585 155.118 38.1292C155.756 38 156.266 37.7415 156.777 37.483C157.287 37.2245 157.67 36.8367 158.052 36.4489C158.435 36.0612 158.818 35.6734 159.073 35.1564L159.328 35.2857L158.052 38.517C157.414 38.9047 156.649 39.1632 155.756 39.4217C154.863 39.551 153.843 39.6802 152.567 39.6802ZM150.271 28.6938C151.419 28.6938 152.695 28.6938 153.843 28.6938C154.991 28.6938 156.139 28.6938 157.032 28.6938C156.904 27.6598 156.777 26.7551 156.394 25.8503C156.139 25.0748 155.756 24.2993 155.246 23.7823C154.736 23.2653 154.225 22.7483 153.587 22.4898C152.95 22.2313 152.312 21.9728 151.546 21.9728C150.909 21.9728 150.271 22.102 149.633 22.4898C149.123 22.7483 148.612 23.2653 148.102 23.7823C147.72 24.2993 147.337 25.0748 147.082 25.8503C146.827 26.6258 146.699 27.6598 146.571 28.6938C147.082 28.6938 147.72 28.6938 148.23 28.6938C148.995 28.6938 149.633 28.6938 150.271 28.6938Z" fill="#3B67A6"/>
<path d="M193.132 16.932L200.276 34.381L207.164 17.1905C207.42 16.5442 207.675 15.898 207.802 15.381C207.93 14.8639 208.057 14.4762 208.057 14.0884C208.057 13.9592 208.057 13.8299 208.057 13.7007C208.057 13.5714 208.057 13.4422 208.057 13.4422V13.3129H211.629V13.4422C211.374 13.7007 211.119 14.0884 210.864 14.7347C210.609 15.381 210.226 16.0272 209.843 16.932L200.404 39.8095H199L192.112 22.8776L185.861 39.8095H184.586L175.911 17.8367C175.656 17.3197 175.529 16.8027 175.273 16.2857C175.018 15.7687 174.891 15.381 174.636 14.9932C174.38 14.6054 174.253 14.3469 174.125 13.9592C173.998 13.7007 173.87 13.5714 173.743 13.4422V13.3129H178.718V13.4422C178.718 13.5714 178.718 13.7007 178.718 13.7007C178.718 13.8299 178.718 13.8299 178.718 13.9592C178.718 14.3469 178.718 14.7347 178.845 15.2517C178.973 15.7687 179.1 16.2857 179.355 16.932L185.989 33.9932L192.367 16.8027L193.132 16.932Z" fill="#3B67A6"/>
<path d="M211.119 33.9932C211.119 33.0884 211.374 32.1837 211.757 31.5374C212.139 30.8911 212.65 30.2449 213.288 29.7279C213.925 29.2109 214.691 28.8231 215.456 28.5646C216.222 28.3061 217.114 28.0476 218.007 27.7891C218.9 27.6598 219.793 27.5306 220.559 27.4013C221.452 27.2721 222.217 27.2721 222.855 27.2721V26.3673C222.855 25.5918 222.727 24.9456 222.6 24.2993C222.345 23.7823 222.089 23.2653 221.707 22.8775C221.324 22.4898 220.941 22.2313 220.431 21.9728C219.921 21.8435 219.411 21.7143 218.773 21.7143C218.39 21.7143 217.88 21.7143 217.497 21.8435C217.114 21.9728 216.604 21.9728 216.222 22.2313C215.839 22.3605 215.329 22.619 214.818 22.8775C214.308 23.136 213.798 23.5238 213.288 23.9115L213.16 23.7823L214.308 21.1973C214.691 21.068 215.073 20.8095 215.456 20.8095C215.839 20.6803 216.222 20.551 216.604 20.551C216.987 20.4218 217.37 20.4218 217.752 20.4218C218.135 20.4218 218.645 20.4218 219.028 20.4218C220.304 20.4218 221.324 20.551 222.217 20.9388C223.11 21.1973 223.875 21.7143 224.386 22.2313C224.896 22.7483 225.406 23.3945 225.661 24.0408C225.916 24.8163 226.044 25.4626 226.044 26.3673V32.3129C226.044 33.3469 226.044 34.2517 226.044 35.0272C226.044 35.8027 226.172 36.449 226.172 36.966C226.172 37.483 226.299 38 226.299 38.3877C226.427 38.7755 226.427 39.034 226.554 39.2925V39.4218H222.6V39.2925C222.6 39.1632 222.727 38.9047 222.727 38.6462C222.727 38.3877 222.727 38.1292 222.855 37.7415C222.6 38 222.345 38.1292 221.962 38.3877C221.579 38.6462 221.197 38.7755 220.814 39.034C220.431 39.1633 219.921 39.4218 219.411 39.4218C218.9 39.551 218.263 39.551 217.625 39.551C215.584 39.551 213.925 39.034 212.905 38.1292C211.629 37.2245 211.119 35.8027 211.119 33.9932ZM222.855 28.8231C221.834 28.8231 220.686 28.9524 219.793 28.9524C218.773 29.0816 217.88 29.3401 217.114 29.5986C216.349 29.9864 215.711 30.5034 215.329 31.1496C214.818 31.7959 214.691 32.7007 214.691 33.8639C214.691 35.2857 215.073 36.3197 215.711 37.0952C216.349 37.8707 217.37 38.2585 218.645 38.2585C219.156 38.2585 219.793 38.1292 220.176 38C220.686 37.8707 221.069 37.6122 221.452 37.3537C221.834 37.0952 222.089 36.8367 222.345 36.5782C222.6 36.3197 222.727 36.0612 222.855 35.6735C222.855 35.1564 222.855 34.7687 222.855 34.1224C222.855 33.6054 222.855 32.9592 222.855 32.1837V28.8231Z" fill="#3B67A6"/>
<path d="M233.698 20.9388C233.698 21.068 233.698 21.1973 233.698 21.3265C233.698 21.4558 233.698 21.585 233.698 21.7143C233.698 22.102 233.698 22.4898 233.825 23.0068C233.953 23.3946 234.081 24.0408 234.336 24.6871L238.545 34.898L242.883 24.8163C243.01 24.4286 243.265 23.9116 243.393 23.3946C243.648 22.8776 243.648 22.3605 243.648 21.8435C243.648 21.7143 243.648 21.585 243.648 21.4558C243.648 21.3265 243.648 21.3265 243.52 21.1973V21.068H246.709V21.1973C246.454 21.4558 246.199 21.8435 245.944 22.3605C245.689 22.8776 245.306 23.6531 244.924 24.5578L238.418 39.8095H237.397L231.274 25.4626C231.019 24.9456 230.891 24.4286 230.636 23.9116C230.381 23.3946 230.126 23.0068 229.999 22.6191C229.871 22.2313 229.616 21.9728 229.361 21.7143C229.233 21.4558 229.106 21.3265 228.978 21.1973V21.068H233.698V20.9388Z" fill="#3B67A6"/>
<path d="M257.935 39.6802C256.659 39.6802 255.384 39.4217 254.236 39.034C253.088 38.6462 252.067 38 251.174 37.2245C250.281 36.4489 249.643 35.4149 249.133 34.2517C248.623 33.0884 248.368 31.6666 248.368 30.1156C248.368 28.8231 248.623 27.5306 249.006 26.3673C249.516 25.204 250.026 24.17 250.919 23.3945C251.684 22.4898 252.577 21.8435 253.725 21.4557C254.746 20.9387 255.894 20.6802 257.17 20.6802C258.445 20.6802 259.466 20.9387 260.614 21.3265C261.634 21.7143 262.527 22.3605 263.293 23.136C264.058 23.9115 264.696 24.9455 265.079 26.1088C265.461 27.2721 265.717 28.6938 265.844 30.2449C264.568 30.2449 263.165 30.2449 261.89 30.2449C260.614 30.2449 259.211 30.2449 257.68 30.2449C256.659 30.2449 255.639 30.2449 254.618 30.2449C253.598 30.2449 252.705 30.2449 251.94 30.2449C252.067 31.5374 252.195 32.5714 252.577 33.6054C252.833 34.6394 253.343 35.4149 253.853 36.1904C254.363 36.966 255.129 37.483 255.894 37.8707C256.659 38.2585 257.552 38.3877 258.573 38.3877C259.211 38.3877 259.849 38.2585 260.486 38.1292C261.124 38 261.634 37.7415 262.145 37.483C262.655 37.2245 263.038 36.8367 263.42 36.4489C263.803 36.0612 264.186 35.6734 264.441 35.1564L264.696 35.2857L263.42 38.517C262.783 38.9047 262.017 39.1632 261.124 39.4217C260.359 39.551 259.211 39.6802 257.935 39.6802ZM255.639 28.6938C256.787 28.6938 258.063 28.6938 259.211 28.6938C260.359 28.6938 261.507 28.6938 262.4 28.6938C262.272 27.6598 262.145 26.7551 261.762 25.8503C261.507 25.0748 261.124 24.2993 260.614 23.7823C260.104 23.2653 259.593 22.7483 258.956 22.4898C258.318 22.2313 257.68 21.9728 256.915 21.9728C256.277 21.9728 255.639 22.102 255.001 22.4898C254.491 22.7483 253.981 23.2653 253.47 23.7823C253.088 24.2993 252.705 25.0748 252.45 25.8503C252.195 26.6258 252.067 27.6598 251.94 28.6938C252.45 28.6938 253.088 28.6938 253.598 28.6938C254.363 28.6938 255.001 28.6938 255.639 28.6938Z" fill="#3B67A6"/>
<path d="M299.521 27.0136C299.011 27.0136 298.501 27.0136 297.735 27.0136C296.97 27.0136 296.204 27.0136 295.439 27.0136C294.546 27.0136 293.781 27.0136 292.888 27.0136C291.995 27.0136 291.102 27.0136 290.209 27.0136C289.316 27.0136 288.551 27.0136 287.785 27.0136C287.02 27.0136 286.382 27.0136 285.744 27.0136V32.3129C285.744 33.3469 285.744 34.2517 285.744 35.0272C285.744 35.8027 285.872 36.4489 285.872 36.9659C285.872 37.483 285.999 38 285.999 38.3877C286.127 38.7755 286.127 39.034 286.254 39.2925V39.4217H281.917V39.2925C282.045 39.034 282.045 38.7755 282.172 38.3877C282.3 38 282.3 37.6122 282.3 36.9659C282.3 36.4489 282.427 35.8027 282.427 35.0272C282.427 34.2517 282.427 33.3469 282.427 32.3129V20.551C282.427 19.517 282.427 18.6122 282.427 17.8367C282.427 17.0612 282.427 16.4149 282.3 15.8979C282.3 15.3809 282.172 14.8639 282.172 14.4762C282.045 14.0884 282.045 13.8299 281.917 13.5714V13.4421H286.127V13.5714C285.999 13.8299 285.999 14.0884 285.872 14.4762C285.744 14.8639 285.744 15.2517 285.744 15.8979C285.744 16.4149 285.617 17.0612 285.617 17.8367C285.617 18.6122 285.617 19.517 285.617 20.551V25.204C286.254 25.204 286.892 25.204 287.658 25.204C288.423 25.204 289.316 25.204 290.081 25.204C290.974 25.204 291.74 25.204 292.633 25.204C293.526 25.204 294.418 25.204 295.184 25.204C295.949 25.204 296.715 25.204 297.48 25.204C298.245 25.204 298.756 25.204 299.393 25.0748V20.6802C299.393 19.6462 299.393 18.7415 299.393 17.9659C299.393 17.1904 299.266 16.5442 299.266 16.0272C299.266 15.5102 299.138 14.9932 299.138 14.6054C299.011 14.2176 299.011 13.9591 298.883 13.7006V13.5714H303.093V13.7006C302.965 13.9591 302.965 14.2176 302.838 14.6054C302.71 14.9932 302.71 15.3809 302.71 16.0272C302.71 16.5442 302.583 17.1904 302.583 17.9659C302.583 18.7415 302.583 19.6462 302.583 20.6802V32.3129C302.583 33.3469 302.583 34.2517 302.583 35.0272C302.583 35.8027 302.583 36.4489 302.71 36.9659C302.71 37.483 302.838 38 302.838 38.3877C302.965 38.7755 302.965 39.034 303.093 39.2925V39.4217H298.883V39.2925C299.011 39.034 299.011 38.7755 299.138 38.3877C299.266 38 299.266 37.6122 299.266 36.9659C299.266 36.4489 299.393 35.8027 299.393 35.0272C299.393 34.2517 299.393 33.3469 299.393 32.3129V27.0136H299.521Z" fill="#3B67A6"/>
<path d="M307.813 33.9932C307.813 33.0884 308.068 32.1837 308.451 31.5374C308.833 30.8911 309.344 30.2449 309.981 29.7279C310.619 29.2109 311.385 28.8231 312.15 28.5646C312.915 28.3061 313.808 28.0476 314.701 27.7891C315.594 27.6598 316.487 27.5306 317.252 27.4013C318.145 27.2721 318.911 27.2721 319.549 27.2721V26.3673C319.549 25.5918 319.421 24.9456 319.294 24.2993C319.038 23.7823 318.783 23.2653 318.401 22.8775C318.018 22.4898 317.635 22.2313 317.125 21.9728C316.615 21.8435 316.104 21.7143 315.467 21.7143C315.084 21.7143 314.574 21.7143 314.191 21.8435C313.808 21.9728 313.298 21.9728 312.915 22.2313C312.533 22.3605 312.022 22.619 311.512 22.8775C311.002 23.136 310.492 23.5238 309.981 23.9115L309.854 23.7823L311.002 21.1973C311.385 21.068 311.767 20.8095 312.15 20.8095C312.533 20.6803 312.915 20.551 313.298 20.551C313.681 20.4218 314.063 20.4218 314.446 20.4218C314.829 20.4218 315.339 20.4218 315.722 20.4218C316.997 20.4218 318.018 20.551 318.911 20.9388C319.804 21.1973 320.569 21.7143 321.079 22.2313C321.59 22.7483 322.1 23.3945 322.355 24.0408C322.61 24.8163 322.738 25.4626 322.738 26.3673V32.3129C322.738 33.3469 322.738 34.2517 322.738 35.0272C322.738 35.8027 322.865 36.449 322.865 36.966C322.865 37.483 322.993 38 322.993 38.3877C323.12 38.7755 323.12 39.034 323.248 39.2925V39.4218H319.294V39.2925C319.294 39.1632 319.421 38.9047 319.421 38.6462C319.421 38.3877 319.421 38.1292 319.549 37.7415C319.294 38 319.038 38.1292 318.656 38.3877C318.273 38.6462 317.89 38.7755 317.508 39.034C317.125 39.1633 316.615 39.4218 316.104 39.4218C315.594 39.551 314.956 39.551 314.319 39.551C312.277 39.551 310.619 39.034 309.599 38.1292C308.451 37.2245 307.813 35.8027 307.813 33.9932ZM319.549 28.8231C318.528 28.8231 317.38 28.9524 316.487 28.9524C315.467 29.0816 314.574 29.3401 313.808 29.5986C313.043 29.9864 312.405 30.5034 312.022 31.1496C311.512 31.7959 311.385 32.7007 311.385 33.8639C311.385 35.2857 311.767 36.3197 312.405 37.0952C313.043 37.8707 314.063 38.2585 315.339 38.2585C315.849 38.2585 316.487 38.1292 316.87 38C317.38 37.8707 317.763 37.6122 318.145 37.3537C318.528 37.0952 318.783 36.8367 319.038 36.5782C319.294 36.3197 319.421 36.0612 319.549 35.6735C319.549 35.1564 319.549 34.7687 319.549 34.1224C319.549 33.6054 319.549 32.9592 319.549 32.1837V28.8231Z" fill="#3B67A6"/>
<path d="M328.861 19.517C328.861 18.483 328.861 17.5782 328.861 16.8027C328.861 16.0272 328.733 15.3809 328.733 14.8639C328.733 14.3469 328.606 13.8299 328.606 13.4422C328.478 13.0544 328.478 12.7959 328.351 12.5374V12.4081H332.433V12.5374C332.305 12.7959 332.305 13.0544 332.178 13.4422C332.178 13.8299 332.05 14.2177 332.05 14.8639C332.05 15.3809 331.922 16.0272 331.922 16.8027C331.922 17.5782 331.922 18.483 331.922 19.517V32.3129C331.922 33.3469 331.922 34.2517 331.922 35.0272C331.922 35.8027 331.922 36.449 332.05 36.966C332.05 37.483 332.178 38 332.178 38.3877C332.178 38.7755 332.305 39.034 332.433 39.2925V39.4217H328.351V39.2925C328.478 39.034 328.478 38.7755 328.606 38.3877C328.733 38 328.733 37.6122 328.733 36.966C328.733 36.449 328.861 35.8027 328.861 35.0272C328.861 34.2517 328.861 33.3469 328.861 32.3129V19.517Z" fill="#3B67A6"/>
<path d="M338.428 19.517C338.428 18.483 338.428 17.5782 338.428 16.8027C338.428 16.0272 338.301 15.3809 338.301 14.8639C338.301 14.3469 338.173 13.8299 338.173 13.4422C338.045 13.0544 338.045 12.7959 337.918 12.5374V12.4081H342V12.5374C341.872 12.7959 341.872 13.0544 341.745 13.4422C341.745 13.8299 341.617 14.2177 341.617 14.8639C341.617 15.3809 341.49 16.0272 341.49 16.8027C341.49 17.5782 341.49 18.483 341.49 19.517V32.3129C341.49 33.3469 341.49 34.2517 341.49 35.0272C341.49 35.8027 341.49 36.449 341.617 36.966C341.617 37.483 341.745 38 341.745 38.3877C341.745 38.7755 341.872 39.034 342 39.2925V39.4217H337.918V39.2925C338.045 39.034 338.045 38.7755 338.173 38.3877C338.301 38 338.301 37.6122 338.301 36.966C338.301 36.449 338.428 35.8027 338.428 35.0272C338.428 34.2517 338.428 33.3469 338.428 32.3129V19.517Z" fill="#3B67A6"/>
<path d="M143.637 63.204C143.765 63.0748 143.765 62.9455 143.893 62.687C144.02 62.4285 144.02 62.17 144.148 61.9115C144.275 61.3945 144.275 60.8775 144.403 60.3605C144.53 59.7142 144.53 59.1972 144.658 58.551C144.786 57.9047 144.913 57.2585 144.913 56.6122C145.041 55.9659 145.168 55.3197 145.168 54.5442C145.296 53.8979 145.296 53.2517 145.423 52.6054C145.551 51.9591 145.551 51.4421 145.678 50.9251C145.806 50.4081 145.806 50.0204 145.806 49.6326C145.806 49.2449 145.934 48.9863 145.934 48.7278H147.209L153.587 60.7483L159.838 48.7278H160.731L162.389 60.8775C162.389 61.2653 162.517 61.5238 162.517 61.9115C162.517 62.17 162.645 62.4285 162.645 62.5578C162.645 62.8163 162.772 62.9455 162.772 63.0748C162.772 63.204 162.9 63.3333 162.9 63.3333H160.348C160.348 63.204 160.476 63.0748 160.476 62.9455C160.476 62.8163 160.476 62.5578 160.476 62.2993C160.476 62.17 160.476 62.17 160.476 62.0408C160.476 61.9115 160.476 61.9115 160.476 61.7823L159.2 51.9591L153.205 63.3333L152.567 63.204L146.571 51.8299C146.316 53.3809 146.189 54.9319 145.934 56.3537C145.806 57 145.806 57.517 145.678 58.1632C145.551 58.6802 145.551 59.3265 145.423 59.8435C145.423 60.3605 145.296 60.7483 145.296 61.136C145.296 61.5238 145.296 61.7823 145.296 62.0408C145.296 62.2993 145.296 62.4285 145.296 62.687C145.296 62.8163 145.296 63.0748 145.296 63.0748C145.296 63.204 145.296 63.3333 145.296 63.4625L143.637 63.204Z" fill="#3B67A6"/>
<path d="M167.875 59.7142C167.875 60.619 168.002 61.2653 168.385 61.653C168.768 62.0408 169.15 62.2993 169.788 62.2993C170.043 62.2993 170.298 62.2993 170.553 62.17C170.809 62.0408 171.064 61.9115 171.446 61.7823C171.702 61.653 171.957 61.3945 172.339 61.2653C172.595 61.0067 172.85 60.8775 173.105 60.619C173.105 60.3605 173.105 60.2312 173.105 59.9727C173.105 59.7142 173.105 59.4557 173.105 59.3265V56.8707C173.105 56.3537 173.105 55.8367 173.105 55.3197C173.105 54.9319 173.105 54.5442 173.105 54.1564C173.105 53.8979 173.105 53.6394 172.977 53.3809C172.977 53.1224 172.85 52.9931 172.85 52.8639H175.146C175.146 52.9931 175.018 53.1224 175.018 53.3809C175.018 53.6394 174.891 53.8979 174.891 54.1564C174.891 54.4149 174.891 54.8027 174.891 55.3197C174.891 55.7074 174.891 56.2244 174.891 56.8707V59.3265C174.891 59.8435 174.891 60.3605 174.891 60.8775C174.891 61.2652 174.891 61.653 174.891 62.0408C174.891 62.2993 174.891 62.5578 175.018 62.8163C175.018 63.0748 175.146 63.204 175.146 63.3333H172.85C172.85 63.204 172.977 62.9455 172.977 62.687C172.977 62.4285 173.105 62.0408 173.105 61.653C172.85 61.9115 172.595 62.17 172.212 62.2993C171.957 62.5578 171.574 62.687 171.191 62.9455C170.809 63.0748 170.553 63.3333 170.171 63.3333C169.788 63.4625 169.533 63.4625 169.15 63.4625C168.64 63.4625 168.13 63.3333 167.875 63.204C167.492 63.0748 167.237 62.8163 166.982 62.4285C166.727 62.17 166.599 61.7823 166.471 61.3945C166.344 61.0067 166.344 60.619 166.344 60.2312V56.8707C166.344 56.3537 166.344 55.8367 166.344 55.3197C166.344 54.9319 166.344 54.5442 166.344 54.1564C166.344 53.8979 166.344 53.6394 166.216 53.3809C166.216 53.1224 166.089 52.9931 166.089 52.8639H168.385C168.385 52.9931 168.257 53.1224 168.257 53.3809C168.257 53.6394 168.13 53.8979 168.13 54.1564C168.13 54.4149 168.13 54.8027 168.13 55.3197C168.13 55.7074 168.13 56.2244 168.13 56.8707V59.7142H167.875Z" fill="#3B67A6"/>
<path d="M183.31 54.932H183.182C183.182 54.8027 183.055 54.6735 182.927 54.415C182.8 54.2857 182.672 54.0272 182.545 53.8979C182.417 53.7687 182.162 53.6394 181.907 53.5102C181.652 53.3809 181.397 53.3809 181.141 53.3809C180.886 53.3809 180.759 53.3809 180.504 53.5102C180.376 53.5102 180.121 53.6394 179.993 53.7687C179.866 53.8979 179.738 54.0272 179.611 54.1565C179.483 54.2857 179.483 54.5442 179.483 54.8027C179.483 55.1905 179.611 55.449 179.738 55.7075C179.993 55.966 180.248 56.3537 180.504 56.6122C180.759 56.8707 181.141 57.2585 181.524 57.517C181.907 57.7755 182.162 58.1633 182.545 58.4218C182.8 58.8095 183.055 59.068 183.31 59.4558C183.565 59.8435 183.565 60.2313 183.565 60.619C183.565 61.0068 183.565 61.2653 183.438 61.653C183.31 62.0408 183.182 62.2993 182.927 62.5578C182.672 62.8163 182.417 63.0748 181.907 63.2041C181.524 63.3333 181.014 63.4626 180.504 63.4626C180.121 63.4626 179.866 63.4626 179.611 63.3333C179.355 63.3333 179.1 63.2041 178.845 63.0748C178.59 62.9456 178.463 62.8163 178.207 62.8163C178.08 62.6871 177.825 62.5578 177.697 62.5578L177.825 60.619H177.952C178.08 60.8775 178.08 61.2653 178.207 61.5238C178.335 61.7823 178.463 62.0408 178.718 62.1701C178.973 62.2993 179.1 62.5578 179.355 62.5578C179.611 62.6871 179.866 62.6871 180.248 62.6871C180.759 62.6871 181.141 62.5578 181.397 62.2993C181.652 62.0408 181.779 61.6531 181.779 61.2653C181.779 60.8775 181.652 60.619 181.524 60.2313C181.269 59.9728 181.014 59.585 180.759 59.3265C180.504 59.068 180.121 58.8095 179.738 58.551C179.355 58.2925 179.1 58.034 178.718 57.6462C178.463 57.3877 178.207 57 177.952 56.6122C177.697 56.2245 177.697 55.8367 177.697 55.3197C177.697 54.932 177.825 54.5442 177.952 54.2857C178.08 53.8979 178.335 53.6394 178.59 53.3809C178.845 53.1224 179.1 52.9932 179.483 52.8639C179.866 52.7347 180.248 52.7347 180.631 52.7347C181.141 52.7347 181.652 52.7347 182.034 52.8639C182.417 52.9932 182.672 53.1224 182.927 53.2517L183.31 54.932Z" fill="#3B67A6"/>
<path d="M186.882 56.8707C186.882 56.3537 186.882 55.8367 186.882 55.3197C186.882 54.932 186.882 54.5442 186.882 54.1565C186.882 53.898 186.882 53.6395 186.754 53.3809C186.754 53.1224 186.627 52.9932 186.627 52.8639H188.923C188.923 52.9932 188.795 53.1224 188.795 53.3809C188.795 53.6395 188.668 53.898 188.668 54.1565C188.668 54.415 188.668 54.8027 188.668 55.3197C188.668 55.7075 188.668 56.2245 188.668 56.8707V59.3265C188.668 59.8435 188.668 60.3605 188.668 60.8775C188.668 61.2653 188.668 61.6531 188.668 62.0408C188.668 62.2993 188.668 62.5578 188.795 62.8163C188.795 63.0748 188.923 63.2041 188.923 63.3333H186.627C186.627 63.2041 186.754 63.0748 186.754 62.8163C186.754 62.5578 186.882 62.2993 186.882 62.0408C186.882 61.7823 186.882 61.3946 186.882 60.8775C186.882 60.4898 186.882 59.9728 186.882 59.3265V56.8707ZM186.627 49.7619C186.627 49.6326 186.627 49.5034 186.754 49.3741C186.754 49.2449 186.882 49.1156 187.009 48.9864C187.137 48.8571 187.264 48.8571 187.392 48.7279C187.52 48.7279 187.647 48.5986 187.775 48.5986C187.902 48.5986 188.03 48.5986 188.157 48.7279C188.285 48.7279 188.413 48.8571 188.54 48.9864C188.668 49.1156 188.668 49.2449 188.795 49.3741C188.795 49.5034 188.923 49.6326 188.923 49.7619C188.923 50.0204 188.795 50.2789 188.668 50.5374C188.413 50.7959 188.157 50.7959 187.902 50.7959C187.775 50.7959 187.647 50.7959 187.52 50.6667C187.392 50.6667 187.264 50.5374 187.137 50.4082C187.009 50.2789 187.009 50.1497 186.882 50.0204C186.627 50.0204 186.627 49.8912 186.627 49.7619Z" fill="#3B67A6"/>
<path d="M200.914 61.136L200.148 62.9455C200.021 63.0748 199.766 63.0748 199.511 63.204C199.255 63.3333 199 63.3333 198.745 63.3333C198.49 63.3333 198.235 63.4625 197.98 63.4625C197.725 63.4625 197.47 63.4625 197.214 63.4625C196.449 63.4625 195.684 63.3333 194.918 63.0748C194.28 62.8163 193.643 62.4285 193.132 62.0408C192.622 61.5238 192.239 61.0068 191.984 60.3605C191.729 59.7143 191.602 58.9387 191.602 58.034C191.602 57.2585 191.729 56.6122 191.984 55.8367C192.239 55.1904 192.622 54.6734 193.26 54.1564C193.77 53.6394 194.408 53.2517 195.046 52.9932C195.811 52.7347 196.577 52.6054 197.342 52.6054C197.725 52.6054 198.107 52.6054 198.49 52.7347C198.873 52.7347 199.255 52.8639 199.638 52.9932L200.404 54.6734L200.276 54.8027C200.148 54.5442 199.893 54.4149 199.638 54.2857C199.383 54.1564 199.128 54.0272 198.873 53.8979C198.618 53.7687 198.363 53.6394 197.98 53.6394C197.725 53.5102 197.342 53.5102 197.087 53.5102C196.577 53.5102 196.066 53.6394 195.684 53.7687C195.301 53.8979 194.918 54.2857 194.536 54.5442C194.28 54.9319 194.025 55.3197 193.77 55.8367C193.643 56.3537 193.515 56.8707 193.515 57.6462C193.515 58.4217 193.643 59.068 193.77 59.7143C193.898 60.3605 194.153 60.8775 194.536 61.3945C194.918 61.9115 195.301 62.17 195.811 62.4285C196.322 62.687 196.832 62.8163 197.597 62.8163C197.852 62.8163 198.235 62.8163 198.49 62.687C198.745 62.5578 199.128 62.5578 199.383 62.2993C199.638 62.17 199.893 62.0408 200.148 61.7823C200.404 61.5238 200.659 61.2653 200.914 61.136Z" fill="#3B67A6"/>
<path d="M202.955 60.2313C202.955 59.7142 203.082 59.1972 203.338 58.8095C203.593 58.4217 203.848 58.034 204.231 57.7755C204.613 57.517 204.996 57.2585 205.506 57.1292C206.016 57 206.399 56.8707 206.909 56.7415C207.42 56.6122 207.93 56.6122 208.44 56.483C208.95 56.483 209.333 56.483 209.716 56.3537V55.8367C209.716 55.4489 209.716 55.0612 209.588 54.6734C209.461 54.2857 209.333 54.0272 209.078 53.8979C208.823 53.6394 208.568 53.5102 208.313 53.3809C208.057 53.2517 207.675 53.2517 207.292 53.2517C207.037 53.2517 206.782 53.2517 206.527 53.2517C206.272 53.2517 206.016 53.3809 205.761 53.5102C205.506 53.6394 205.251 53.7687 204.996 53.8979C204.741 54.0272 204.358 54.2857 204.103 54.5442H203.975L204.613 53.1224C204.868 52.9932 204.996 52.9932 205.251 52.8639C205.506 52.8639 205.634 52.7347 205.889 52.7347C206.144 52.7347 206.399 52.6054 206.527 52.6054C206.782 52.6054 207.037 52.6054 207.292 52.6054C208.057 52.6054 208.568 52.7347 209.078 52.8639C209.588 52.9932 209.971 53.2517 210.354 53.6394C210.609 53.8979 210.864 54.2857 210.991 54.6734C211.119 55.0612 211.247 55.4489 211.247 55.966V59.3265C211.247 59.8435 211.247 60.3605 211.247 60.8775C211.247 61.2653 211.247 61.653 211.247 62.0408C211.247 62.2993 211.247 62.5578 211.374 62.8163C211.374 63.0748 211.502 63.204 211.502 63.3333H209.333C209.333 63.204 209.333 63.0748 209.461 62.9455C209.461 62.8163 209.461 62.687 209.461 62.4285C209.333 62.5578 209.206 62.687 208.95 62.8163C208.695 62.9455 208.568 63.0748 208.313 63.204C208.057 63.3333 207.802 63.3333 207.547 63.4625C207.292 63.5918 206.909 63.5918 206.527 63.5918C205.379 63.5918 204.486 63.3333 203.848 62.8163C203.21 62.0408 202.955 61.2653 202.955 60.2313ZM209.588 57.2585C208.95 57.2585 208.44 57.2585 207.802 57.3877C207.292 57.517 206.782 57.6462 206.272 57.7755C205.889 58.034 205.506 58.2925 205.251 58.6802C204.996 59.068 204.868 59.585 204.868 60.2313C204.868 61.0068 205.123 61.653 205.506 62.0408C205.889 62.4285 206.399 62.687 207.165 62.687C207.547 62.687 207.802 62.687 208.057 62.5578C208.313 62.4285 208.568 62.2993 208.823 62.17C209.078 62.0408 209.206 61.9115 209.333 61.653C209.461 61.5238 209.588 61.2653 209.716 61.136C209.716 60.8775 209.716 60.619 209.716 60.2313C209.716 59.9728 209.716 59.585 209.716 59.1972V57.2585H209.588Z" fill="#3B67A6"/>
<path d="M215.201 52.0884C215.201 51.5714 215.201 51.0544 215.201 50.5374C215.201 50.1496 215.201 49.7619 215.201 49.3741C215.201 49.1156 215.201 48.8571 215.073 48.5986C215.073 48.3401 214.946 48.2109 214.946 48.0816H217.242C217.242 48.2109 217.115 48.3401 217.115 48.5986C217.115 48.8571 216.987 49.1156 216.987 49.3741C216.987 49.6326 216.987 50.0204 216.987 50.5374C216.987 50.9251 216.987 51.4421 216.987 52.0884V59.3265C216.987 59.8435 216.987 60.3605 216.987 60.8775C216.987 61.2653 216.987 61.653 216.987 62.0408C216.987 62.2993 216.987 62.5578 217.115 62.8163C217.115 63.0748 217.242 63.2041 217.242 63.3333H214.946C214.946 63.2041 215.073 63.0748 215.073 62.8163C215.073 62.5578 215.201 62.2993 215.201 62.0408C215.201 61.7823 215.201 61.3945 215.201 60.8775C215.201 60.4898 215.201 59.9728 215.201 59.3265V52.0884Z" fill="#3B67A6"/>
<path d="M231.529 49.6326C230.764 49.6326 229.999 49.6326 229.361 49.7619C228.723 49.8911 228.213 49.8911 227.702 50.0204C227.192 50.1496 226.682 50.2789 226.299 50.4081L226.554 48.7278C226.682 48.7278 226.809 48.7278 226.937 48.7278C227.065 48.7278 227.32 48.7278 227.447 48.7278C227.702 48.7278 227.83 48.7278 228.085 48.7278C228.34 48.7278 228.468 48.7278 228.723 48.7278C228.978 48.7278 229.106 48.7278 229.233 48.7278C229.361 48.7278 229.488 48.7278 229.616 48.7278H235.356C235.484 48.7278 235.484 48.7278 235.739 48.7278C235.866 48.7278 236.122 48.7278 236.249 48.7278C236.504 48.7278 236.632 48.7278 236.887 48.7278C237.142 48.7278 237.27 48.7278 237.525 48.7278C237.78 48.7278 237.908 48.7278 238.035 48.7278C238.163 48.7278 238.29 48.7278 238.418 48.7278L238.673 50.4081C238.29 50.2789 237.78 50.1496 237.27 50.0204C236.759 49.8911 236.249 49.8911 235.611 49.7619C234.974 49.6326 234.208 49.6326 233.443 49.6326V59.3265C233.443 59.8435 233.443 60.3605 233.443 60.8775C233.443 61.2653 233.443 61.653 233.443 62.0408C233.443 62.2993 233.443 62.5578 233.57 62.8163C233.57 63.0748 233.698 63.204 233.698 63.3333H231.274C231.274 63.204 231.402 63.0748 231.402 62.8163C231.402 62.5578 231.529 62.2993 231.529 62.0408C231.529 61.7823 231.529 61.3945 231.529 60.8775C231.529 60.4897 231.529 59.9727 231.529 59.3265V49.6326Z" fill="#3B67A6"/>
<path d="M247.858 56.483C247.858 55.5782 247.73 54.9319 247.347 54.5442C246.965 54.1564 246.454 53.8979 245.944 53.8979C245.689 53.8979 245.434 53.8979 245.179 54.0272C244.924 54.1564 244.668 54.2857 244.286 54.4149C244.031 54.5442 243.775 54.8027 243.393 54.9319C243.138 55.1904 242.883 55.3197 242.627 55.5782V59.3265C242.627 59.8435 242.627 60.3605 242.627 60.8775C242.627 61.2653 242.627 61.653 242.627 62.0408C242.627 62.2993 242.627 62.5578 242.755 62.8163C242.755 63.0748 242.883 63.2041 242.883 63.3333H240.586C240.586 63.2041 240.714 63.0748 240.714 62.8163C240.714 62.5578 240.841 62.2993 240.841 62.0408C240.841 61.7823 240.841 61.3945 240.841 60.8775C240.841 60.4898 240.841 59.9728 240.841 59.3265V52.0884C240.841 51.5714 240.841 51.0544 240.841 50.5374C240.841 50.1496 240.841 49.7619 240.841 49.3741C240.841 49.1156 240.841 48.8571 240.714 48.5986C240.714 48.3401 240.586 48.2109 240.586 48.0816H242.883C242.883 48.2109 242.755 48.3401 242.755 48.5986C242.755 48.8571 242.627 49.1156 242.627 49.3741C242.627 49.6326 242.627 50.0204 242.627 50.5374C242.627 50.9251 242.627 51.4421 242.627 52.0884V54.6734C242.883 54.4149 243.138 54.1564 243.52 53.8979C243.903 53.6394 244.158 53.5102 244.541 53.2517C244.924 53.1224 245.306 52.8639 245.561 52.7347C245.944 52.6054 246.327 52.6054 246.582 52.6054C247.092 52.6054 247.602 52.7347 247.858 52.8639C248.24 52.9932 248.495 53.2517 248.75 53.6394C249.006 53.8979 249.133 54.2857 249.261 54.6734C249.388 55.0612 249.388 55.4489 249.388 55.8367V59.3265C249.388 59.8435 249.388 60.3605 249.388 60.8775C249.388 61.2653 249.388 61.653 249.388 62.0408C249.388 62.2993 249.388 62.5578 249.516 62.8163C249.643 63.0748 249.643 63.2041 249.643 63.3333H247.347C247.347 63.2041 247.475 63.0748 247.475 62.8163C247.475 62.5578 247.602 62.2993 247.602 62.0408C247.602 61.7823 247.602 61.3945 247.602 60.8775C247.602 60.4898 247.602 59.9728 247.602 59.3265V56.483H247.858Z" fill="#3B67A6"/>
<path d="M257.935 63.4625C257.17 63.4625 256.532 63.3333 255.894 63.0748C255.256 62.8163 254.618 62.4285 254.236 62.0408C253.725 61.5238 253.343 61.0068 253.088 60.3605C252.833 59.7143 252.705 58.9387 252.705 58.034C252.705 57.2585 252.833 56.6122 253.088 55.8367C253.343 55.1904 253.725 54.6734 254.108 54.1564C254.618 53.6394 255.129 53.2517 255.639 52.9932C256.277 52.7347 256.915 52.6054 257.552 52.6054C258.19 52.6054 258.828 52.7347 259.466 52.9932C260.104 53.2517 260.614 53.6394 260.997 54.0272C261.379 54.5442 261.762 55.0612 262.017 55.7074C262.272 56.3537 262.4 57.1292 262.4 58.034C261.634 58.034 260.869 58.034 260.104 58.034C259.338 58.034 258.573 58.034 257.68 58.034C257.042 58.034 256.532 58.034 256.022 58.034C255.511 58.034 255.001 58.034 254.491 58.034C254.491 58.6802 254.618 59.3265 254.874 59.9728C255.001 60.4898 255.256 61.0068 255.639 61.3945C255.894 61.7823 256.277 62.17 256.787 62.2993C257.17 62.5578 257.68 62.687 258.318 62.687C258.7 62.687 259.083 62.687 259.466 62.5578C259.849 62.4285 260.104 62.2993 260.359 62.17C260.614 62.0408 260.869 61.7823 261.124 61.653C261.379 61.3945 261.507 61.136 261.634 60.8775H261.762L260.997 62.687C260.614 62.8163 260.231 63.0748 259.721 63.204C259.211 63.4626 258.7 63.4625 257.935 63.4625ZM256.659 57.2585C257.297 57.2585 258.063 57.2585 258.7 57.2585C259.338 57.2585 259.976 57.2585 260.486 57.2585C260.486 56.6122 260.359 56.0952 260.104 55.7074C259.976 55.1904 259.721 54.8027 259.466 54.5442C259.211 54.1564 258.956 54.0272 258.573 53.7687C258.19 53.6394 257.808 53.5102 257.425 53.5102C257.042 53.5102 256.659 53.6394 256.404 53.7687C256.022 53.8979 255.766 54.1564 255.511 54.5442C255.256 54.9319 255.129 55.3197 254.874 55.7074C254.746 56.2245 254.618 56.7415 254.618 57.2585C254.874 57.2585 255.256 57.2585 255.511 57.2585C255.766 57.2585 256.277 57.2585 256.659 57.2585Z" fill="#3B67A6"/>
<path d="M264.568 60.2313C264.568 59.7142 264.696 59.1972 264.951 58.8095C265.206 58.4217 265.461 58.034 265.844 57.7755C266.227 57.517 266.61 57.2585 267.12 57.1292C267.63 57 268.013 56.8707 268.523 56.7415C269.033 56.6122 269.543 56.6122 270.054 56.483C270.564 56.483 270.947 56.483 271.329 56.3537V55.8367C271.329 55.4489 271.329 55.0612 271.202 54.6734C271.074 54.2857 270.947 54.0272 270.692 53.8979C270.436 53.6394 270.181 53.5102 269.926 53.3809C269.671 53.2517 269.288 53.2517 268.906 53.2517C268.651 53.2517 268.395 53.2517 268.14 53.2517C267.885 53.2517 267.63 53.3809 267.375 53.5102C267.12 53.6394 266.865 53.7687 266.61 53.8979C266.354 54.0272 265.972 54.2857 265.717 54.5442H265.589L266.227 53.1224C266.482 52.9932 266.61 52.9932 266.865 52.8639C267.12 52.8639 267.247 52.7347 267.502 52.7347C267.758 52.7347 268.013 52.6054 268.14 52.6054C268.395 52.6054 268.651 52.6054 268.906 52.6054C269.671 52.6054 270.181 52.7347 270.692 52.8639C271.202 52.9932 271.585 53.2517 271.967 53.6394C272.222 53.8979 272.477 54.2857 272.605 54.6734C272.733 55.0612 272.86 55.4489 272.86 55.966V59.3265C272.86 59.8435 272.86 60.3605 272.86 60.8775C272.86 61.2653 272.86 61.653 272.86 62.0408C272.86 62.2993 272.86 62.5578 272.988 62.8163C272.988 63.0748 273.115 63.204 273.115 63.3333H270.947C270.947 63.204 270.947 63.0748 271.074 62.9455C271.074 62.8163 271.074 62.687 271.074 62.4285C270.947 62.5578 270.819 62.687 270.564 62.8163C270.309 62.9455 270.181 63.0748 269.926 63.204C269.671 63.3333 269.416 63.3333 269.161 63.4625C268.906 63.5918 268.523 63.5918 268.14 63.5918C266.992 63.5918 266.099 63.3333 265.461 62.8163C264.951 62.0408 264.568 61.2653 264.568 60.2313ZM271.202 57.2585C270.564 57.2585 270.054 57.2585 269.416 57.3877C268.906 57.517 268.395 57.6462 267.885 57.7755C267.502 58.034 267.12 58.2925 266.865 58.6802C266.61 59.068 266.482 59.585 266.482 60.2313C266.482 61.0068 266.737 61.653 267.12 62.0408C267.502 62.4285 268.013 62.687 268.778 62.687C269.161 62.687 269.416 62.687 269.671 62.5578C269.926 62.4285 270.181 62.2993 270.436 62.17C270.692 62.0408 270.819 61.9115 270.947 61.653C271.074 61.5238 271.202 61.2653 271.329 61.136C271.329 60.8775 271.329 60.619 271.329 60.2313C271.329 59.9728 271.329 59.585 271.329 59.1972V57.2585H271.202Z" fill="#3B67A6"/>
<path d="M280.514 62.6871C280.769 62.6871 280.897 62.6871 281.152 62.5578C281.407 62.4286 281.534 62.4285 281.662 62.2993C281.79 62.17 282.045 62.0408 282.172 61.9115C282.3 61.7823 282.555 61.5238 282.683 61.3945H282.81L282.172 63.0748C282.045 63.0748 282.045 63.2041 281.917 63.2041C281.79 63.2041 281.662 63.3333 281.534 63.3333C281.407 63.3333 281.152 63.4626 280.897 63.4626C280.642 63.4626 280.386 63.4626 280.131 63.4626C279.238 63.4626 278.473 63.2041 278.09 62.6871C277.58 62.17 277.325 61.3945 277.325 60.3605V53.5102H275.667V52.6054C275.922 52.6054 276.177 52.6054 276.432 52.6054C276.687 52.6054 277.07 52.6054 277.325 52.6054C277.325 52.0884 277.325 51.7007 277.325 51.3129C277.325 50.9251 277.325 50.6666 277.325 50.4081C277.325 50.1496 277.325 49.8911 277.197 49.7619C277.197 49.6326 277.07 49.3741 277.07 49.2449H279.366C279.366 49.3741 279.238 49.5034 279.238 49.7619C279.238 49.8911 279.238 50.1496 279.111 50.4081C279.111 50.6666 279.111 51.0544 279.111 51.3129C279.111 51.7007 279.111 52.0884 279.111 52.6054C279.493 52.6054 280.004 52.6054 280.386 52.6054C280.769 52.6054 281.152 52.6054 281.534 52.6054C281.917 52.6054 282.172 52.6054 282.427 52.6054C282.683 52.6054 282.81 52.6054 282.938 52.6054L282.81 53.6394C282.427 53.6394 282.172 53.6394 281.79 53.6394C281.407 53.6394 281.152 53.6394 280.642 53.6394C280.259 53.6394 279.749 53.6394 279.366 53.6394V60.619C279.366 61.0068 279.366 61.3945 279.493 61.653C279.621 61.9115 279.749 62.17 279.876 62.2993C280.004 62.4285 280.131 62.5578 280.386 62.5578C280.131 62.6871 280.259 62.6871 280.514 62.6871Z" fill="#3B67A6"/>
<path d="M290.081 63.4625C289.316 63.4625 288.678 63.3333 288.04 63.0748C287.402 62.8163 286.765 62.4285 286.382 62.0408C285.872 61.5238 285.489 61.0068 285.234 60.3605C284.979 59.7143 284.851 58.9387 284.851 58.034C284.851 57.2585 284.979 56.6122 285.234 55.8367C285.489 55.1904 285.872 54.6734 286.254 54.1564C286.765 53.6394 287.275 53.2517 287.785 52.9932C288.423 52.7347 289.061 52.6054 289.699 52.6054C290.336 52.6054 290.974 52.7347 291.612 52.9932C292.25 53.2517 292.76 53.6394 293.143 54.0272C293.526 54.5442 293.908 55.0612 294.163 55.7074C294.419 56.3537 294.546 57.1292 294.546 58.034C293.781 58.034 293.015 58.034 292.25 58.034C291.485 58.034 290.719 58.034 289.826 58.034C289.188 58.034 288.678 58.034 288.168 58.034C287.658 58.034 287.147 58.034 286.637 58.034C286.637 58.6802 286.765 59.3265 287.02 59.9728C287.147 60.4898 287.402 61.0068 287.785 61.3945C288.04 61.7823 288.423 62.17 288.933 62.2993C289.316 62.5578 289.826 62.687 290.464 62.687C290.847 62.687 291.229 62.687 291.612 62.5578C291.995 62.4285 292.25 62.2993 292.505 62.17C292.76 62.0408 293.015 61.7823 293.27 61.653C293.526 61.3945 293.653 61.136 293.781 60.8775H293.908L293.143 62.687C292.76 62.8163 292.377 63.0748 291.867 63.204C291.357 63.4626 290.719 63.4625 290.081 63.4625ZM288.678 57.2585C289.316 57.2585 290.081 57.2585 290.719 57.2585C291.357 57.2585 291.995 57.2585 292.505 57.2585C292.505 56.6122 292.377 56.0952 292.122 55.7074C291.995 55.1904 291.74 54.8027 291.485 54.5442C291.229 54.1564 290.974 54.0272 290.592 53.7687C290.209 53.6394 289.826 53.5102 289.444 53.5102C289.061 53.5102 288.678 53.6394 288.423 53.7687C288.04 53.8979 287.785 54.1564 287.53 54.5442C287.275 54.9319 287.147 55.3197 286.892 55.7074C286.765 56.2245 286.637 56.7415 286.637 57.2585C286.892 57.2585 287.275 57.2585 287.53 57.2585C287.785 57.2585 288.295 57.2585 288.678 57.2585Z" fill="#3B67A6"/>
<path d="M297.48 56.8707C297.48 56.3537 297.48 55.8367 297.48 55.3197C297.48 54.9319 297.48 54.5442 297.48 54.1564C297.48 53.8979 297.48 53.6394 297.352 53.3809C297.352 53.1224 297.225 52.9932 297.225 52.8639H299.521C299.521 52.9932 299.394 53.2517 299.394 53.3809C299.394 53.6394 299.266 53.8979 299.266 54.2857C299.521 54.0272 299.776 53.8979 300.031 53.6394C300.286 53.3809 300.542 53.2517 300.797 53.1224C301.052 52.9932 301.307 52.8639 301.69 52.7347C301.945 52.6054 302.327 52.6054 302.583 52.6054C302.71 52.6054 302.965 52.6054 303.093 52.6054C303.22 52.6054 303.348 52.6054 303.476 52.7347C303.603 52.7347 303.731 52.7347 303.731 52.8639C303.858 52.8639 303.858 52.9932 303.986 52.9932L303.476 54.9319H303.348C303.22 54.6734 303.093 54.4149 302.838 54.1564C302.583 54.0272 302.327 53.8979 301.945 53.8979C301.69 53.8979 301.562 53.8979 301.307 54.0272C301.052 54.1564 300.797 54.1564 300.669 54.2857C300.414 54.4149 300.159 54.5442 299.904 54.8027C299.649 54.9319 299.394 55.1904 299.266 55.3197C299.266 55.5782 299.266 55.7074 299.266 55.966C299.266 56.2245 299.266 56.483 299.266 56.7415V59.3265C299.266 59.8435 299.266 60.3605 299.266 60.8775C299.266 61.2653 299.266 61.653 299.266 62.0408C299.266 62.2993 299.266 62.5578 299.394 62.8163C299.521 63.0748 299.521 63.204 299.521 63.3333H297.225C297.225 63.204 297.352 63.0748 297.352 62.8163C297.352 62.5578 297.48 62.2993 297.48 62.0408C297.48 61.7823 297.48 61.3945 297.48 60.8775C297.48 60.4898 297.48 59.9728 297.48 59.3265V56.8707Z" fill="#3B67A6"/>
</g>
<defs>
<linearGradient id="paint0_linear_15_11" x1="73.3883" y1="20.6933" x2="32.7363" y2="52.2417" gradientUnits="userSpaceOnUse">
<stop stop-color="#CCE0F4" stop-opacity="0.5"/>
<stop offset="0.1021" stop-color="#C3D7ED" stop-opacity="0.5"/>
<stop offset="0.2718" stop-color="#AAC0DD" stop-opacity="0.5"/>
<stop offset="0.4884" stop-color="#86A0C8" stop-opacity="0.5"/>
<stop offset="0.7434" stop-color="#577BAE" stop-opacity="0.5"/>
<stop offset="1" stop-color="#005C97" stop-opacity="0.5"/>
</linearGradient>
<linearGradient id="paint1_linear_15_11" x1="6.2282" y1="29.3638" x2="85.4368" y2="60.6281" gradientUnits="userSpaceOnUse">
<stop stop-color="#CCE0F4" stop-opacity="0.5"/>
<stop offset="0.1021" stop-color="#C3D7ED" stop-opacity="0.5"/>
<stop offset="0.2718" stop-color="#AAC0DD" stop-opacity="0.5"/>
<stop offset="0.4884" stop-color="#86A0C8" stop-opacity="0.5"/>
<stop offset="0.7434" stop-color="#577BAE" stop-opacity="0.5"/>
<stop offset="1" stop-color="#005C97" stop-opacity="0.5"/>
</linearGradient>
<linearGradient id="paint2_linear_15_11" x1="15.1226" y1="19.9947" x2="86.7616" y2="57.3631" gradientUnits="userSpaceOnUse">
<stop stop-color="#CCE0F4" stop-opacity="0.5"/>
<stop offset="0.1021" stop-color="#C3D7ED" stop-opacity="0.5"/>
<stop offset="0.2718" stop-color="#AAC0DD" stop-opacity="0.5"/>
<stop offset="0.4884" stop-color="#86A0C8" stop-opacity="0.5"/>
<stop offset="0.7434" stop-color="#577BAE" stop-opacity="0.5"/>
<stop offset="1" stop-color="#005C97" stop-opacity="0.5"/>
</linearGradient>
<clipPath id="clip0_15_11">
<rect width="342" height="76" fill="white"/>
</clipPath>
</defs>
</svg>
